<svg width="125" height="47" viewBox="0 0 125 47" fill="none" xmlns="http://www.w3.org/2000/svg">
<path fill-rule="evenodd" clip-rule="evenodd" d="M84.3153 0.390958C83.2746 0.613574 82.1375 0.982647 81.7885 1.21112C80.2039 2.24892 78.2327 4.24133 77.0764 5.97451C76.3139 7.11747 75.6388 7.83218 75.3695 7.78092C75.0699 7.7241 74.657 6.64324 74.1077 4.47713C73.6582 2.70675 73.2875 1.02717 73.2837 0.745385C73.2774 0.281114 72.8708 0.232783 68.9666 0.232783H64.6563V23.2266V46.2205H70.3042H75.9522L75.9572 33.8448C75.9629 20.6915 76.1133 18.9026 77.4286 16.3622C78.8605 13.5965 82.3994 11.2868 85.8033 10.8967L87.4796 10.7048L88.5985 12.4254C91.4646 16.8335 94.6795 22.2922 94.6795 22.751C94.6795 23.0301 94.2583 23.9103 93.7434 24.707C92.5969 26.4815 89.3984 31.6216 84.7311 39.1905C82.7939 42.3321 81.0294 45.1104 80.81 45.3649C80.5906 45.6192 80.411 45.9159 80.411 46.024C80.411 46.132 83.3304 46.2205 86.8988 46.2205H93.3867L97.8287 38.5315C100.272 34.3027 102.454 30.8425 102.679 30.8425C102.904 30.8425 105.087 34.3027 107.532 38.5315L111.976 46.2205H118.488C122.07 46.2205 125 46.1622 125 46.0913C125 46.0202 124.211 44.7351 123.248 43.2354C121.767 40.9308 117.578 34.2816 111.705 24.913L110.375 22.7914L111.196 21.398C112.231 19.6431 121.891 4.13412 123.347 1.89186L124.431 0.221653L117.827 0.300447L111.223 0.379241L107.146 7.40921C104.903 11.2757 102.901 14.4392 102.697 14.4392C102.494 14.4392 100.499 11.2757 98.2654 7.40951C94.6471 1.14756 94.1079 0.359616 93.3267 0.194411C91.7393 -0.140977 86.2436 -0.0211739 84.3153 0.390958ZM14.909 0.684166C10.937 1.2533 4.8081 3.30664 4.20348 4.27062C4.12024 4.40331 4.64045 5.75688 5.35952 7.27857C6.07829 8.80027 6.67489 10.1773 6.6853 10.3384C6.6954 10.4995 6.93499 10.9239 7.21739 11.2813L7.73106 11.9315L10.2685 10.9242C17.6738 7.98538 23.6523 8.55393 25.1017 12.3346C25.5247 13.4377 25.514 17.7146 25.0875 17.9744C24.9058 18.0851 22.4647 18.2916 19.6625 18.4334C10.717 18.8856 6.39755 20.1964 3.21241 23.4252C-1.6356 28.3392 -0.857073 39.9035 4.60834 44.1689C7.58391 46.4912 11.5678 47.41 16.1551 46.8318C19.9686 46.3509 21.7082 45.833 23.8981 44.526C25.6707 43.4683 29.0508 40.4445 29.6171 39.4102C30.077 38.5704 30.5454 38.8103 32.0308 40.6457C35.8804 45.403 42.6258 47.6532 50.5852 46.8348C52.5204 46.6359 54.8393 46.2885 55.7385 46.0629C57.9977 45.4961 61.1546 44.2451 61.4387 43.8037C61.5683 43.6024 61.6766 41.5441 61.6792 39.2295L61.6837 35.0215L61.0149 35.1796C60.6471 35.2666 59.121 35.8074 57.6234 36.3812C54.8738 37.4348 50.246 38.315 47.4916 38.3083C41.6644 38.2939 37.1984 34.1093 36.9392 28.4209L36.8625 26.7416L50.3878 26.5952L63.9131 26.4487L64.0014 22.9337C64.2157 14.4073 62.5205 9.18135 58.1508 4.89658C55.4186 2.21758 52.9903 1.09073 48.6712 0.497286C46.2678 0.16717 45.5169 0.181524 42.824 0.608301C39.2183 1.17978 36.9252 2.09866 34.5837 3.90975C33.6575 4.62622 32.8103 5.21235 32.7009 5.21235C32.5915 5.21235 31.7443 4.63267 30.818 3.9241C28.3689 2.05091 26.4447 1.20585 23.4567 0.690903C20.3896 0.162191 18.5605 0.160726 14.909 0.684166ZM49.1161 9.47397C49.9523 9.88464 50.9948 10.6834 51.4327 11.249C52.4823 12.6049 53.369 15.1498 53.4466 17.0283L53.509 18.54H45.3344H37.1598L37.1942 16.8534C37.2382 14.7207 38.6363 11.7783 40.2201 10.4857C42.498 8.62628 46.4702 8.1746 49.1161 9.47397ZM25.3606 28.9253C25.259 31.8747 25.1445 32.4942 24.4659 33.7716C22.8473 36.8173 20.3869 38.2948 16.9158 38.3053C14.5981 38.3124 13.4301 37.7804 12.2173 36.1656C11.2899 34.931 11.3291 30.7774 12.2848 28.9965C13.0877 27.5003 14.9898 26.2141 17.1578 25.7015C19.2906 25.1974 24.5821 24.8986 25.0759 25.2545C25.3847 25.4771 25.4501 26.3213 25.3606 28.9253Z" fill="#8D00FF"/>
</svg>
