<svg width="66" height="25" viewBox="0 0 66 25" fill="none" xmlns="http://www.w3.org/2000/svg">
<path fill-rule="evenodd" clip-rule="evenodd" d="M44.5185 0.207956C43.969 0.326369 43.3686 0.522685 43.1844 0.644213C42.3476 1.19623 41.3069 2.25603 40.6963 3.17793C40.2937 3.78589 39.9373 4.16605 39.7951 4.13879C39.6369 4.10856 39.4189 3.53364 39.1288 2.38145C38.8915 1.43976 38.6958 0.546367 38.6938 0.396482C38.6905 0.149529 38.4758 0.123821 36.4143 0.123821H34.1385V12.3546V24.5854H37.1206H40.1027L40.1054 18.0026C40.1084 11.0061 40.1878 10.0546 40.8823 8.70328C41.6384 7.23216 43.5069 6.00363 45.3042 5.7961L46.1892 5.69404L46.78 6.60925C48.2933 8.95398 49.9908 11.8576 49.9908 12.1016C49.9908 12.2501 49.7684 12.7183 49.4965 13.142C48.8912 14.0859 47.2024 16.82 44.738 20.846C43.7152 22.5171 42.7835 23.9949 42.6677 24.1303C42.5518 24.2655 42.457 24.4233 42.457 24.4808C42.457 24.5383 43.9985 24.5854 45.8825 24.5854H49.3082L51.6535 20.4955C52.9435 18.2461 54.0959 16.4056 54.2146 16.4056C54.333 16.4056 55.4862 18.2461 56.7768 20.4955L59.1234 24.5854H62.5618C64.4528 24.5854 66 24.5544 66 24.5167C66 24.4788 65.5836 23.7953 65.0748 22.9976C64.2928 21.7717 62.0812 18.2349 58.9804 13.2516L58.2782 12.1231L58.7117 11.3819C59.2578 10.4485 64.3584 2.199 65.127 1.00631L65.6996 0.117901L62.2127 0.159812L58.7258 0.201724L56.5729 3.94107C55.3889 5.99771 54.3319 7.68042 54.2243 7.68042C54.1166 7.68042 53.0636 5.99771 51.8841 3.94123C49.9737 0.610404 49.689 0.191285 49.2765 0.10341C48.4384 -0.0749877 45.5366 -0.0112627 44.5185 0.207956ZM7.87195 0.363918C5.77474 0.666649 2.53868 1.75885 2.21944 2.27161C2.17549 2.34219 2.45016 3.06217 2.82983 3.87158C3.20934 4.68099 3.52434 5.41344 3.52984 5.49913C3.53517 5.58482 3.66168 5.81059 3.81078 6.00067L4.082 6.34656L5.42175 5.81074C9.33177 4.24754 12.4884 4.54996 13.2537 6.56095C13.4771 7.14772 13.4714 9.42264 13.2462 9.56084C13.1503 9.61974 11.8614 9.72958 10.3818 9.80499C5.65859 10.0456 3.37791 10.7428 1.69615 12.4602C-0.863595 15.074 -0.452534 21.2253 2.43321 23.4941C4.00431 24.7293 6.10779 25.2181 8.52989 24.9105C10.5434 24.6547 11.4619 24.3792 12.6182 23.684C13.5541 23.1214 15.3388 21.513 15.6378 20.9629C15.8806 20.5162 16.128 20.6438 16.9123 21.6201C18.9448 24.1505 22.5064 25.3474 26.709 24.9121C27.7308 24.8063 28.9551 24.6215 29.4299 24.5016C30.6228 24.2001 32.2896 23.5346 32.4397 23.2998C32.5081 23.1928 32.5652 22.0979 32.5666 20.8668L32.569 18.6284L32.2158 18.7126C32.0217 18.7589 31.2159 19.0465 30.4252 19.3517C28.9733 19.9121 26.5299 20.3803 25.0756 20.3767C21.9988 20.3691 19.6408 18.1433 19.5039 15.1175L19.4634 14.2243L26.6048 14.1464L33.7461 14.0685L33.7927 12.1988C33.9059 7.66343 33.0108 4.8837 30.7036 2.60457C29.261 1.17956 27.9789 0.580177 25.6984 0.264514C24.4294 0.0889204 24.0329 0.0965551 22.6111 0.323565C20.7073 0.627542 19.4965 1.11631 18.2602 2.07966C17.7711 2.46076 17.3238 2.77252 17.2661 2.77252C17.2083 2.77252 16.761 2.46418 16.2719 2.08729C14.9788 1.09091 13.9628 0.641409 12.3851 0.367502C10.7657 0.0862716 9.79996 0.0854927 7.87195 0.363918ZM25.9333 5.03935C26.3748 5.25779 26.9253 5.68267 27.1565 5.98353C27.7107 6.70476 28.1789 8.0584 28.2198 9.05759L28.2528 9.8617H23.9366H19.6204L19.6386 8.96457C19.6618 7.83015 20.3999 6.26507 21.2362 5.5775C22.4389 4.58844 24.5363 4.34819 25.9333 5.03935ZM13.3904 15.3858C13.3367 16.9546 13.2763 17.2841 12.918 17.9636C12.0634 19.5837 10.7643 20.3696 8.93154 20.3752C7.70777 20.3789 7.0911 20.096 6.45073 19.237C5.96104 18.5803 5.98176 16.371 6.48636 15.4237C6.91029 14.6278 7.91464 13.9437 9.05929 13.671C10.1854 13.4029 12.9794 13.2439 13.2401 13.4332C13.4031 13.5517 13.4377 14.0007 13.3904 15.3858Z" fill="#8D00FF"/>
</svg>
