<svg xmlns="http://www.w3.org/2000/svg" xmlns:xlink="http://www.w3.org/1999/xlink" width="500" zoomAndPan="magnify" viewBox="0 0 375 187.499995" height="250" preserveAspectRatio="xMidYMid meet" version="1.0"><defs><g><g id="id1"/><g id="id2"/><g id="id3"/><g id="id4"/><g id="id5"/><g id="id6"/><g id="id7"/><g id="id8"/><g id="id9"/><g id="id10"/><g id="id11"/><g id="id12"/><g id="id13"/></g></defs><g fill="rgb(0%, 0%, 0%)" fill-opacity="1"><g transform="translate(4.890949, 165.522019)"><g><path d="M 75.152344 -1.4375 L 38.773438 -95.019531 C 38.414062 -95.976562 36.738281 -95.976562 36.378906 -95.019531 L 0.121094 -1.4375 C -0.238281 -0.71875 0.238281 0 1.316406 0 L 17.710938 0 C 18.191406 0 18.789062 -0.238281 18.90625 -0.71875 L 37.578125 -54.089844 L 56.484375 -0.71875 C 56.605469 -0.238281 57.203125 0 57.5625 0 L 74.074219 0 C 74.914062 0 75.511719 -0.71875 75.152344 -1.4375 Z M 75.152344 -1.4375 "/></g></g></g><g fill="rgb(0%, 0%, 0%)" fill-opacity="1"><g transform="translate(83.867817, 165.522019)"><g><path d="M 45.476562 -17.832031 L 18.308594 -17.832031 L 18.308594 -39.371094 L 55.886719 -39.371094 C 56.605469 -39.371094 57.203125 -39.96875 57.203125 -40.449219 L 57.203125 -55.648438 C 57.203125 -56.246094 56.605469 -56.722656 55.886719 -56.722656 L 18.308594 -56.722656 L 18.308594 -78.382812 L 45.476562 -78.382812 L 45.476562 -95.738281 L 1.316406 -95.738281 C 0.597656 -95.738281 0 -95.136719 0 -94.660156 L 0 -1.078125 C 0 -0.597656 0.597656 0 1.316406 0 L 45.476562 0 Z M 45.476562 -17.832031 "/></g></g></g><g fill="rgb(0%, 0%, 0%)" fill-opacity="1"><g transform="translate(143.938112, 165.522019)"><g><path d="M 65.339844 -1.554688 C 59.355469 -14.839844 52.894531 -28.003906 46.910156 -41.527344 C 56.484375 -44.996094 64.503906 -52.65625 64.503906 -67.253906 C 64.503906 -95.496094 37.578125 -95.738281 32.191406 -95.738281 L 1.195312 -95.738281 C 0.597656 -95.738281 0 -95.136719 0 -94.660156 L 0 -78.382812 L 32.191406 -78.382812 C 35.0625 -78.382812 46.3125 -77.785156 46.3125 -67.253906 C 46.3125 -56.722656 36.140625 -56.246094 32.191406 -56.246094 L 0 -56.246094 L 0 -1.078125 C 0 -0.597656 0.597656 0 1.195312 0 L 16.875 0 C 17.589844 0 18.191406 -0.597656 18.191406 -1.078125 L 18.191406 -38.652344 L 28.480469 -38.652344 L 45.953125 -0.71875 C 46.074219 -0.359375 46.792969 0 47.148438 0 L 64.261719 0 C 65.21875 0 65.699219 -0.71875 65.339844 -1.554688 Z M 65.339844 -1.554688 "/></g></g></g><g fill="rgb(0%, 0%, 0%)" fill-opacity="1"><g transform="translate(212.743716, 165.522019)"><g><path d="M 87.238281 -95.738281 L 68.09375 -95.738281 C 67.851562 -95.738281 67.136719 -95.617188 67.015625 -95.378906 L 44.398438 -63.425781 L 34.34375 -77.425781 L 12.085938 -77.425781 C 19.148438 -67.496094 26.089844 -57.5625 33.148438 -47.867188 L 0.359375 -1.796875 C -0.359375 -0.957031 0.121094 0 1.316406 0 L 20.464844 0 C 20.703125 0 21.421875 -0.121094 21.539062 -0.359375 L 44.398438 -32.3125 L 54.332031 -18.308594 L 76.589844 -18.308594 C 69.527344 -28.242188 62.46875 -38.175781 55.40625 -47.867188 L 88.4375 -93.941406 C 89.035156 -94.777344 88.554688 -95.738281 87.238281 -95.738281 Z M 87.238281 -95.738281 "/></g></g></g><g fill="rgb(0%, 0%, 0%)" fill-opacity="1"><g transform="translate(217.065298, 80.094259)"><g><path d="M 1.046875 -2.21875 L -1.078125 -3.21875 L 3.21875 -12.390625 L 2.5 -14.390625 L -1.21875 -16.140625 L -3.265625 -15.4375 L -6.640625 -8.234375 L -10.515625 -6.84375 L -15.234375 -9.0625 L -16.640625 -12.9375 L -11.984375 -22.84375 L -9.859375 -21.84375 L -14.03125 -12.984375 L -13.3125 -10.921875 L -10.203125 -9.5 L -8.1875 -10.234375 L -4.796875 -17.4375 L -0.90625 -18.796875 L 4.40625 -16.296875 L 5.84375 -12.4375 Z M 1.046875 -2.21875 "/></g></g></g><g fill="rgb(0%, 0%, 0%)" fill-opacity="1"><g transform="translate(224.992333, 63.159993)"><g><path d="M 3.34375 -3.484375 L -0.8125 -3.390625 L -11.421875 -13.5625 L -11.5 -17.71875 L -4.78125 -24.734375 L -0.640625 -24.8125 L 9.96875 -14.640625 L 10.0625 -10.5 Z M 2.484375 -5.875 L 7.625 -11.234375 L 7.59375 -13.40625 L -1.78125 -22.375 L -3.953125 -22.34375 L -9.09375 -16.984375 L -9.046875 -14.796875 L 0.328125 -5.828125 Z M 2.484375 -5.875 "/></g></g></g><g fill="rgb(0%, 0%, 0%)" fill-opacity="1"><g transform="translate(238.733646, 49.051636)"><g><path d="M 4.28125 -2.25 L 0.3125 -3.46875 L -6.53125 -16.484375 L -5.28125 -20.453125 L 2.9375 -24.78125 L 6.765625 -23.578125 L 6.09375 -21.375 L 3.09375 -22.296875 L -3.234375 -18.984375 L -3.875 -16.90625 L 2.15625 -5.421875 L 4.234375 -4.78125 L 10.765625 -8.203125 L 11.703125 -11.25 L 13.890625 -10.5625 L 12.671875 -6.65625 Z M 4.28125 -2.25 "/></g></g></g><g fill="rgb(0%, 0%, 0%)" fill-opacity="1"><g transform="translate(255.753727, 40.757045)"><g><path d="M 1.6875 -0.375 L 1.171875 -2.65625 L 3.609375 -3.203125 L 0.125 -18.703125 L -2.3125 -18.15625 L -2.828125 -20.4375 L 4.5625 -22.109375 L 5.078125 -19.828125 L 2.609375 -19.265625 L 6.09375 -3.765625 L 8.5625 -4.328125 L 9.078125 -2.046875 Z M 1.6875 -0.375 "/></g></g></g><g fill="rgb(0%, 0%, 0%)" fill-opacity="1"><g transform="translate(267.356441, 37.759749)"><g><path d="M 0.390625 0.015625 L 8.28125 -20.21875 L 12.203125 -20.03125 L 18.203125 0.828125 L 15.5625 0.71875 L 14.046875 -4.734375 L 5.046875 -5.140625 L 3.0625 0.140625 Z M 5.890625 -7.328125 L 13.421875 -6.984375 L 10.4375 -17.71875 L 9.796875 -17.75 Z M 5.890625 -7.328125 "/></g></g></g><g fill="rgb(0%, 0%, 0%)" fill-opacity="1"><g transform="translate(286.469989, 38.935226)"><g><path d="M 2.28125 0.8125 L 9.234375 -18.53125 L 11.625 -17.65625 L 5.46875 -0.515625 L 15.21875 2.984375 L 14.421875 5.1875 Z M 2.28125 0.8125 "/></g></g></g><g fill="rgb(0%, 0%, 0%)" fill-opacity="1"><g transform="translate(308.946415, 48.638025)"><g><path d="M 1.6875 1.734375 L 16.421875 -12.609375 L 18.84375 -10.125 L 13.390625 7.984375 L 25.25 -3.5625 L 27.015625 -1.734375 L 12.28125 12.609375 L 10.1875 10.453125 L 15.515625 -7.328125 L 15.09375 -7.765625 L 3.46875 3.5625 Z M 1.6875 1.734375 "/></g></g></g><g fill="rgb(0%, 0%, 0%)" fill-opacity="1"><g transform="translate(322.959697, 63.390147)"><g><path d="M 1.046875 2.1875 L 19.5625 -6.75 L 25.453125 5.453125 L 23.34375 6.484375 L 18.5625 -3.4375 L 12.9375 -0.734375 L 17.21875 8.140625 L 15.140625 9.15625 L 10.859375 0.28125 L 4.265625 3.453125 L 9.046875 13.375 L 6.9375 14.390625 Z M 1.046875 2.1875 "/></g></g></g><g fill="rgb(0%, 0%, 0%)" fill-opacity="1"><g transform="translate(330.600135, 79.774591)"><g><path d="M 1.015625 6.390625 L 19 3.515625 L 18.046875 -2.515625 L 20.359375 -2.890625 L 22.6875 11.6875 L 20.375 12.0625 L 19.40625 6.03125 L 1.421875 8.90625 Z M 1.015625 6.390625 "/></g></g></g><g fill="rgb(0%, 0%, 0%)" fill-opacity="1"><g transform="translate(333.898766, 95.201066)"><g><path d="M -1.015625 5.3125 L 20.140625 4.203125 L 19.625 6.84375 L 1.046875 7.421875 L 0.9375 8.015625 L 18.046875 15.171875 L 17.609375 17.4375 L -0.9375 17.8125 L -1.046875 18.40625 L 16.015625 25.78125 L 15.515625 28.40625 L -3.734375 19.59375 L -2.984375 15.6875 L 12.546875 15.296875 L -1.765625 9.234375 Z M -1.015625 5.3125 "/></g></g></g><g fill="rgb(0%, 0%, 0%)" fill-opacity="1"><g transform="translate(328.679627, 119.789331)"><g><path d="M -2.578125 4.078125 L 1.46875 3.15625 L 13.890625 11.015625 L 14.8125 15.0625 L 9.625 23.28125 L 5.578125 24.1875 L -6.84375 16.328125 L -7.765625 12.296875 Z M -1.265625 6.25 L -5.234375 12.515625 L -4.78125 14.65625 L 6.1875 21.578125 L 8.328125 21.09375 L 12.296875 14.828125 L 11.796875 12.703125 L 0.828125 5.78125 Z M -1.265625 6.25 "/></g></g></g><g fill="rgb(0%, 0%, 0%)" fill-opacity="1"><g transform="translate(318.120275, 136.356435)"><g><path d="M -1.890625 1.515625 L 11.015625 17.515625 L 2.265625 24.578125 L -1.828125 24.140625 L -5.953125 19.03125 L -5.515625 14.921875 L -5.453125 14.875 L -13.46875 10.859375 L -11.28125 9.09375 L -3.296875 13.140625 L 1.25 9.46875 L -3.875 3.125 Z M 2.65625 11.21875 L -3.21875 15.953125 L -3.421875 18.109375 L -0.390625 21.859375 L 1.75 22.109375 L 7.625 17.375 Z M 2.65625 11.21875 "/></g></g></g><g fill="rgb(0%, 0%, 0%)" fill-opacity="1"><g transform="translate(303.064047, 148.356182)"><g><path d="M -2.265625 0.84375 L 4.9375 20.109375 L 2.546875 21 L -1.296875 10.71875 L -6.546875 24.40625 L -9.359375 25.453125 L -5.25 14.5 L -16.703125 6.234375 L -13.859375 5.171875 L -4.296875 12.015625 L -2.546875 7.390625 L -4.65625 1.734375 Z M -2.265625 0.84375 "/></g></g></g></svg>