<svg width="56" height="56" viewBox="0 0 56 56" fill="none" xmlns="http://www.w3.org/2000/svg">
<path d="M4.6665 16.3334C4.6665 15.0957 5.15817 13.9088 6.03334 13.0336C6.90851 12.1584 8.09549 11.6667 9.33317 11.6667H46.6665C47.9042 11.6667 49.0912 12.1584 49.9663 13.0336C50.8415 13.9088 51.3332 15.0957 51.3332 16.3334V39.6668C51.3332 40.9044 50.8415 42.0914 49.9663 42.9666C49.0912 43.8418 47.9042 44.3334 46.6665 44.3334H9.33317C8.09549 44.3334 6.90851 43.8418 6.03334 42.9666C5.15817 42.0914 4.6665 40.9044 4.6665 39.6668V16.3334Z" stroke="#9510AC" stroke-width="1.75" stroke-linecap="round" stroke-linejoin="round"/>
<path d="M28 35C31.866 35 35 31.866 35 28C35 24.134 31.866 21 28 21C24.134 21 21 24.134 21 28C21 31.866 24.134 35 28 35Z" stroke="#9510AC" stroke-width="1.75" stroke-linecap="round" stroke-linejoin="round"/>
<path d="M4.6665 21.0001C7.14186 21.0001 9.51583 20.0168 11.2662 18.2664C13.0165 16.5161 13.9998 14.1421 13.9998 11.6667" stroke="#9510AC" stroke-width="1.75" stroke-linecap="round" stroke-linejoin="round"/>
<path d="M42 44.3333C42 41.858 42.9833 39.484 44.7337 37.7337C46.484 35.9833 48.858 35 51.3333 35" stroke="#9510AC" stroke-width="1.75" stroke-linecap="round" stroke-linejoin="round"/>
</svg>
