<svg width="1024" height="1024" viewBox="0 0 1024 1024" fill="none" xmlns="http://www.w3.org/2000/svg">
<path d="M504 200C331.2 206.4 213.333 341.333 176 408L135.214 88.507C132.052 63.738 157.212 45.0523 180.01 55.2385L504 200Z" fill="url(#paint0_linear_138:730)"/>
<path fill-rule="evenodd" clip-rule="evenodd" d="M170.687 95.1245C175.589 87.7721 185.522 85.7853 192.875 90.6869L408.875 234.687C416.227 239.589 418.214 249.522 413.313 256.875C408.411 264.227 398.477 266.214 391.125 261.313L175.125 117.313C167.772 112.411 165.785 102.477 170.687 95.1245Z" fill="#69C0FF"/>
<circle cx="144" cy="528" r="64" fill="url(#paint1_radial_138:730)"/>
<circle r="64" transform="matrix(-1 0 0 1 880 528)" fill="url(#paint2_radial_138:730)"/>
<circle cx="512" cy="560" r="384" fill="url(#paint3_radial_138:730)"/>
<circle cx="512" cy="560" r="384" fill="url(#paint4_radial_138:730)"/>
<g filter="url(#filter0_f_138:730)">
<path d="M487.987 880.001C686.809 880.001 847.987 718.824 847.987 520.001C847.987 482.506 842.255 446.349 831.618 412.359C852.392 457.259 863.984 507.275 863.984 559.999C863.984 754.404 706.388 911.999 511.984 911.999C397.317 911.999 295.456 857.17 231.188 772.299C296.504 838.773 387.431 880.001 487.987 880.001Z" fill="#C1092A" fill-opacity="0.8"/>
</g>
<path fill-rule="evenodd" clip-rule="evenodd" d="M884.113 487.671C916.843 510.351 930.193 554.198 910.555 608.203C895.81 648.754 871.858 673.626 844.368 687.749C817.649 701.476 789.62 704.002 768 704.002C768 704.002 768 704.002 768 704.002H552C538.745 704.002 528 693.256 528 680.002C528 666.747 538.745 656.002 552 656.002H768C786.38 656.002 805.551 653.728 822.433 645.055C838.542 636.778 854.591 621.65 865.445 591.8C879.573 552.946 867.298 534.418 856.774 527.124C843.562 517.969 826.213 519.729 816.971 528.972C808.623 537.32 807.43 548.727 811.193 557.865C814.951 566.993 821.223 569.683 827.293 568.469C840.291 565.869 852.934 574.298 855.534 587.296C858.133 600.293 849.704 612.937 836.707 615.536C802.777 622.322 777.049 601.012 766.808 576.14C756.571 551.277 759.378 518.684 783.029 495.032C810.536 467.522 854.07 466.853 884.113 487.671Z" fill="#D424E3"/>
<path fill-rule="evenodd" clip-rule="evenodd" d="M805.656 490.343C808.78 493.467 808.78 498.532 805.656 501.657C792.207 515.107 790.476 533.576 796.397 547.955C802.317 562.331 815.074 571.228 830.43 568.156C834.763 567.29 838.977 570.099 839.844 574.432C840.71 578.764 837.901 582.979 833.568 583.846C808.925 588.774 789.682 573.671 781.602 554.047C773.523 534.426 775.792 508.894 794.342 490.343C797.466 487.219 802.532 487.219 805.656 490.343Z" fill="#F059FD"/>
<path fill-rule="evenodd" clip-rule="evenodd" d="M836.916 645.979C839.137 649.799 837.841 654.695 834.021 656.916C810.605 670.53 785.121 671.831 768.079 671.999C768.053 672 768.026 672 768 672H552C547.582 672 544 668.418 544 664C544 659.582 547.582 656 552 656H767.96C784.581 655.833 806.411 654.461 825.979 643.084C829.799 640.863 834.695 642.159 836.916 645.979Z" fill="#F059FD"/>
<g filter="url(#filter1_ddii_138:730)">
<path fill-rule="evenodd" clip-rule="evenodd" d="M545.089 648.412C557.746 636.335 565.759 621.158 568.98 611.689C573.248 599.14 586.881 592.427 599.43 596.696C611.978 600.964 618.691 614.597 614.423 627.146C609.091 642.821 597.271 664.966 578.224 683.14C558.757 701.714 530.776 716.906 494.655 714.877C481.422 714.134 471.296 702.803 472.039 689.569C472.783 676.335 484.114 666.209 497.348 666.953C517.261 668.071 532.852 660.087 545.089 648.412Z" fill="#894819"/>
</g>
<g filter="url(#filter2_ddii_138:730)">
<path fill-rule="evenodd" clip-rule="evenodd" d="M354.279 328.906C333.816 332.204 314.903 343.918 304.199 353.709C294.418 362.655 279.237 361.979 270.291 352.199C261.345 342.418 262.021 327.237 271.802 318.291C287.497 303.935 314.664 286.671 346.641 281.517C380.197 276.109 418.036 284.39 449.888 320C458.725 329.879 457.88 345.051 448.001 353.888C438.121 362.725 422.949 361.88 414.112 352.001C394.125 329.655 373.163 325.862 354.279 328.906Z" fill="#894819"/>
</g>
<g filter="url(#filter3_ddii_138:730)">
<path fill-rule="evenodd" clip-rule="evenodd" d="M658.279 328.906C637.816 332.204 618.903 343.918 608.199 353.709C598.418 362.655 583.237 361.979 574.291 352.199C565.345 342.418 566.021 327.237 575.802 318.291C591.497 303.935 618.664 286.671 650.641 281.517C684.197 276.109 722.036 284.39 753.888 320C762.725 329.879 761.88 345.051 752.001 353.888C742.121 362.725 726.949 361.88 718.112 352.001C698.125 329.655 677.163 325.862 658.279 328.906Z" fill="#894819"/>
</g>
<path d="M528 80C528 97.6731 513.673 112 496 112C478.327 112 464 97.6731 464 80C464 62.3269 478.327 48 496 48C513.673 48 528 62.3269 528 80Z" fill="#27BBFA"/>
<path d="M800 176C800 193.673 785.673 208 768 208C750.327 208 736 193.673 736 176C736 158.327 750.327 144 768 144C785.673 144 800 158.327 800 176Z" fill="#9027FA"/>
<path d="M432 480C432 497.673 417.673 512 400 512C382.327 512 368 497.673 368 480C368 462.327 382.327 448 400 448C417.673 448 432 462.327 432 480Z" fill="#27BBFA"/>
<path d="M112 352C112 369.673 97.6731 384 80 384C62.3269 384 48 369.673 48 352C48 334.327 62.3269 320 80 320C97.6731 320 112 334.327 112 352Z" fill="#FA27F1"/>
<path d="M288 688C288 705.673 273.673 720 256 720C238.327 720 224 705.673 224 688C224 670.327 238.327 656 256 656C273.673 656 288 670.327 288 688Z" fill="#9027FA"/>
<path d="M736 448C736 465.673 721.673 480 704 480C686.327 480 672 465.673 672 448C672 430.327 686.327 416 704 416C721.673 416 736 430.327 736 448Z" fill="#FA27F1"/>
<path d="M880 368C880 385.673 865.673 400 848 400C830.327 400 816 385.673 816 368C816 350.327 830.327 336 848 336C865.673 336 880 350.327 880 368Z" fill="#27BBFA"/>
<defs>
<filter id="filter0_f_138:730" x="135.188" y="316.359" width="824.797" height="691.64" filterUnits="userSpaceOnUse" color-interpolation-filters="sRGB">
<feFlood flood-opacity="0" result="BackgroundImageFix"/>
<feBlend mode="normal" in="SourceGraphic" in2="BackgroundImageFix" result="shape"/>
<feGaussianBlur stdDeviation="48" result="effect1_foregroundBlur_138:730"/>
</filter>
<filter id="filter1_ddii_138:730" x="440" y="579.411" width="207.707" height="183.649" filterUnits="userSpaceOnUse" color-interpolation-filters="sRGB">
<feFlood flood-opacity="0" result="BackgroundImageFix"/>
<feColorMatrix in="SourceAlpha" type="matrix" values="0 0 0 0 0 0 0 0 0 0 0 0 0 0 0 0 0 0 127 0" result="hardAlpha"/>
<feOffset dy="16"/>
<feGaussianBlur stdDeviation="16"/>
<feColorMatrix type="matrix" values="0 0 0 0 0.282353 0 0 0 0 0.054902 0 0 0 0 0.301961 0 0 0 0.2 0"/>
<feBlend mode="normal" in2="BackgroundImageFix" result="effect1_dropShadow_138:730"/>
<feColorMatrix in="SourceAlpha" type="matrix" values="0 0 0 0 0 0 0 0 0 0 0 0 0 0 0 0 0 0 127 0" result="hardAlpha"/>
<feOffset dy="4"/>
<feGaussianBlur stdDeviation="4"/>
<feComposite in2="hardAlpha" operator="out"/>
<feColorMatrix type="matrix" values="0 0 0 0 0.282353 0 0 0 0 0.054902 0 0 0 0 0.301961 0 0 0 0.2 0"/>
<feBlend mode="normal" in2="effect1_dropShadow_138:730" result="effect2_dropShadow_138:730"/>
<feBlend mode="normal" in="SourceGraphic" in2="effect2_dropShadow_138:730" result="shape"/>
<feColorMatrix in="SourceAlpha" type="matrix" values="0 0 0 0 0 0 0 0 0 0 0 0 0 0 0 0 0 0 127 0" result="hardAlpha"/>
<feOffset dx="6" dy="6"/>
<feGaussianBlur stdDeviation="16"/>
<feComposite in2="hardAlpha" operator="arithmetic" k2="-1" k3="1"/>
<feColorMatrix type="matrix" values="0 0 0 0 0.76276 0 0 0 0 0.388636 0 0 0 0 0.122215 0 0 0 1 0"/>
<feBlend mode="normal" in2="shape" result="effect3_innerShadow_138:730"/>
<feColorMatrix in="SourceAlpha" type="matrix" values="0 0 0 0 0 0 0 0 0 0 0 0 0 0 0 0 0 0 127 0" result="hardAlpha"/>
<feOffset dx="-6" dy="-6"/>
<feGaussianBlur stdDeviation="16"/>
<feComposite in2="hardAlpha" operator="arithmetic" k2="-1" k3="1"/>
<feColorMatrix type="matrix" values="0 0 0 0 0.354427 0 0 0 0 0.180009 0 0 0 0 0.0538352 0 0 0 1 0"/>
<feBlend mode="normal" in2="effect3_innerShadow_138:730" result="effect4_innerShadow_138:730"/>
</filter>
<filter id="filter2_ddii_138:730" x="232" y="264.007" width="256" height="143.994" filterUnits="userSpaceOnUse" color-interpolation-filters="sRGB">
<feFlood flood-opacity="0" result="BackgroundImageFix"/>
<feColorMatrix in="SourceAlpha" type="matrix" values="0 0 0 0 0 0 0 0 0 0 0 0 0 0 0 0 0 0 127 0" result="hardAlpha"/>
<feOffset dy="16"/>
<feGaussianBlur stdDeviation="16"/>
<feColorMatrix type="matrix" values="0 0 0 0 0.282353 0 0 0 0 0.054902 0 0 0 0 0.301961 0 0 0 0.2 0"/>
<feBlend mode="normal" in2="BackgroundImageFix" result="effect1_dropShadow_138:730"/>
<feColorMatrix in="SourceAlpha" type="matrix" values="0 0 0 0 0 0 0 0 0 0 0 0 0 0 0 0 0 0 127 0" result="hardAlpha"/>
<feOffset dy="4"/>
<feGaussianBlur stdDeviation="4"/>
<feComposite in2="hardAlpha" operator="out"/>
<feColorMatrix type="matrix" values="0 0 0 0 0.282353 0 0 0 0 0.054902 0 0 0 0 0.301961 0 0 0 0.2 0"/>
<feBlend mode="normal" in2="effect1_dropShadow_138:730" result="effect2_dropShadow_138:730"/>
<feBlend mode="normal" in="SourceGraphic" in2="effect2_dropShadow_138:730" result="shape"/>
<feColorMatrix in="SourceAlpha" type="matrix" values="0 0 0 0 0 0 0 0 0 0 0 0 0 0 0 0 0 0 127 0" result="hardAlpha"/>
<feOffset dx="6" dy="6"/>
<feGaussianBlur stdDeviation="16"/>
<feComposite in2="hardAlpha" operator="arithmetic" k2="-1" k3="1"/>
<feColorMatrix type="matrix" values="0 0 0 0 0.76276 0 0 0 0 0.388636 0 0 0 0 0.122215 0 0 0 1 0"/>
<feBlend mode="normal" in2="shape" result="effect3_innerShadow_138:730"/>
<feColorMatrix in="SourceAlpha" type="matrix" values="0 0 0 0 0 0 0 0 0 0 0 0 0 0 0 0 0 0 127 0" result="hardAlpha"/>
<feOffset dx="-6" dy="-6"/>
<feGaussianBlur stdDeviation="16"/>
<feComposite in2="hardAlpha" operator="arithmetic" k2="-1" k3="1"/>
<feColorMatrix type="matrix" values="0 0 0 0 0.354427 0 0 0 0 0.180009 0 0 0 0 0.0538352 0 0 0 1 0"/>
<feBlend mode="normal" in2="effect3_innerShadow_138:730" result="effect4_innerShadow_138:730"/>
</filter>
<filter id="filter3_ddii_138:730" x="536" y="264.007" width="256" height="143.994" filterUnits="userSpaceOnUse" color-interpolation-filters="sRGB">
<feFlood flood-opacity="0" result="BackgroundImageFix"/>
<feColorMatrix in="SourceAlpha" type="matrix" values="0 0 0 0 0 0 0 0 0 0 0 0 0 0 0 0 0 0 127 0" result="hardAlpha"/>
<feOffset dy="16"/>
<feGaussianBlur stdDeviation="16"/>
<feColorMatrix type="matrix" values="0 0 0 0 0.282353 0 0 0 0 0.054902 0 0 0 0 0.301961 0 0 0 0.2 0"/>
<feBlend mode="normal" in2="BackgroundImageFix" result="effect1_dropShadow_138:730"/>
<feColorMatrix in="SourceAlpha" type="matrix" values="0 0 0 0 0 0 0 0 0 0 0 0 0 0 0 0 0 0 127 0" result="hardAlpha"/>
<feOffset dy="4"/>
<feGaussianBlur stdDeviation="4"/>
<feComposite in2="hardAlpha" operator="out"/>
<feColorMatrix type="matrix" values="0 0 0 0 0.282353 0 0 0 0 0.054902 0 0 0 0 0.301961 0 0 0 0.2 0"/>
<feBlend mode="normal" in2="effect1_dropShadow_138:730" result="effect2_dropShadow_138:730"/>
<feBlend mode="normal" in="SourceGraphic" in2="effect2_dropShadow_138:730" result="shape"/>
<feColorMatrix in="SourceAlpha" type="matrix" values="0 0 0 0 0 0 0 0 0 0 0 0 0 0 0 0 0 0 127 0" result="hardAlpha"/>
<feOffset dx="6" dy="6"/>
<feGaussianBlur stdDeviation="16"/>
<feComposite in2="hardAlpha" operator="arithmetic" k2="-1" k3="1"/>
<feColorMatrix type="matrix" values="0 0 0 0 0.76276 0 0 0 0 0.388636 0 0 0 0 0.122215 0 0 0 1 0"/>
<feBlend mode="normal" in2="shape" result="effect3_innerShadow_138:730"/>
<feColorMatrix in="SourceAlpha" type="matrix" values="0 0 0 0 0 0 0 0 0 0 0 0 0 0 0 0 0 0 127 0" result="hardAlpha"/>
<feOffset dx="-6" dy="-6"/>
<feGaussianBlur stdDeviation="16"/>
<feComposite in2="hardAlpha" operator="arithmetic" k2="-1" k3="1"/>
<feColorMatrix type="matrix" values="0 0 0 0 0.354427 0 0 0 0 0.180009 0 0 0 0 0.0538352 0 0 0 1 0"/>
<feBlend mode="normal" in2="effect3_innerShadow_138:730" result="effect4_innerShadow_138:730"/>
</filter>
<linearGradient id="paint0_linear_138:730" x1="312" y1="24" x2="136" y2="400" gradientUnits="userSpaceOnUse">
<stop stop-color="#188DE1"/>
<stop offset="0.258035" stop-color="#4DACF1"/>
<stop offset="0.482007" stop-color="#2192E3"/>
<stop offset="1" stop-color="#1073BA"/>
</linearGradient>
<radialGradient id="paint1_radial_138:730" cx="0" cy="0" r="1" gradientUnits="userSpaceOnUse" gradientTransform="translate(96 504) rotate(61.3895) scale(100.24)">
<stop stop-color="#FFCE21"/>
<stop offset="1" stop-color="#E9A326"/>
</radialGradient>
<radialGradient id="paint2_radial_138:730" cx="0" cy="0" r="1" gradientUnits="userSpaceOnUse" gradientTransform="translate(16 40) rotate(61.3895) scale(100.24)">
<stop stop-color="#FFCE21"/>
<stop offset="1" stop-color="#E9A326"/>
</radialGradient>
<radialGradient id="paint3_radial_138:730" cx="0" cy="0" r="1" gradientUnits="userSpaceOnUse" gradientTransform="translate(376 272) rotate(78.559) scale(685.624)">
<stop stop-color="#FFF7D9"/>
<stop offset="0.122763" stop-color="#FFE690"/>
<stop offset="0.518601" stop-color="#FFCE22"/>
<stop offset="1" stop-color="#FFB422"/>
</radialGradient>
<radialGradient id="paint4_radial_138:730" cx="0" cy="0" r="1" gradientUnits="userSpaceOnUse" gradientTransform="translate(376 272) rotate(78.559) scale(685.624)">
<stop offset="0.857147" stop-color="#EDFF22" stop-opacity="0"/>
<stop offset="1" stop-color="#FF24F6" stop-opacity="0.3"/>
</radialGradient>
</defs>
</svg>
