<svg width="111" height="41" viewBox="0 0 111 41" fill="none" xmlns="http://www.w3.org/2000/svg">
<path fill-rule="evenodd" clip-rule="evenodd" d="M74.8719 0.341049C73.9478 0.535245 72.9381 0.857203 72.6282 1.05651C71.221 1.96182 69.4707 3.69989 68.4438 5.21181C67.7668 6.20886 67.1673 6.83233 66.9281 6.78761C66.6621 6.73804 66.2954 5.79517 65.8076 3.90558C65.4085 2.36121 65.0793 0.896042 65.0759 0.65023C65.0703 0.245228 64.7092 0.203066 61.2423 0.203066H57.4148V20.2615V40.32H62.4301H67.4455L67.45 29.5242C67.455 18.05 67.5886 16.4895 68.7566 14.2734C70.0282 11.8607 73.1707 9.84596 76.1934 9.5056L77.6819 9.33823L78.6754 10.8392C81.2206 14.6845 84.0754 19.4464 84.0754 19.8466C84.0754 20.0901 83.7014 20.8579 83.2442 21.553C82.2261 23.1009 79.3858 27.5848 75.2412 34.1875C73.521 36.928 71.9541 39.3516 71.7593 39.5736C71.5644 39.7954 71.405 40.0543 71.405 40.1486C71.405 40.2429 73.9974 40.32 77.1661 40.32H82.9274L86.8719 33.6126C89.0414 29.9236 90.9795 26.9051 91.179 26.9051C91.3783 26.9051 93.3177 29.9236 95.4883 33.6126L99.4348 40.32H105.218C108.398 40.32 111 40.2692 111 40.2073C111 40.1452 110.3 39.0243 109.444 37.716C108.129 35.7056 104.409 29.9052 99.1944 21.7326L98.0134 19.8818L98.7424 18.6663C99.6608 17.1355 108.239 3.60636 109.532 1.65034L110.495 0.193357L104.63 0.262092L98.7662 0.330827L95.1454 6.46336C93.154 9.83625 91.3765 12.5959 91.1954 12.5959C91.0143 12.5959 89.2433 9.83625 87.2596 6.46361C84.0466 1.00106 83.5678 0.313707 82.8741 0.169593C81.4645 -0.12298 76.5843 -0.0184709 74.8719 0.341049ZM13.2392 0.596826C9.71206 1.09331 4.26959 2.88451 3.73269 3.72544C3.65878 3.84119 4.12072 5.02196 4.75925 6.34939C5.39752 7.67683 5.9273 8.87804 5.93654 9.01858C5.94552 9.15911 6.15828 9.52936 6.40904 9.8411L6.86518 10.4084L9.1184 9.52962C15.6943 6.96597 21.0032 7.46194 22.2903 10.76C22.666 11.7223 22.6565 15.4531 22.2777 15.6798C22.1164 15.7764 19.9487 15.9565 17.4603 16.0802C9.51672 16.4747 5.68102 17.6182 2.85262 20.4348C-1.45241 24.7214 -0.761081 34.8094 4.09221 38.5303C6.73451 40.5561 10.2722 41.3577 14.3457 40.8533C17.7322 40.4337 19.2769 39.982 21.2215 38.8418C22.7956 37.9191 25.7971 35.2814 26.3 34.3791C26.7083 33.6466 27.1244 33.8558 28.4434 35.4569C31.8618 39.6069 37.8517 41.5698 44.9197 40.8559C46.6381 40.6824 48.6973 40.3793 49.4958 40.1826C51.5019 39.6881 54.3052 38.5968 54.5576 38.2117C54.6727 38.0362 54.7688 36.2406 54.7712 34.2215L54.7751 30.5506L54.1812 30.6886C53.8547 30.7645 52.4995 31.2362 51.1696 31.7368C48.7279 32.6559 44.6185 33.4237 42.1726 33.4179C36.998 33.4053 33.0322 29.755 32.802 24.7927L32.7339 23.3278L44.7444 23.2L56.7549 23.0723L56.8333 20.006C57.0236 12.568 55.5182 8.00926 51.6379 4.27149C49.2118 1.93448 47.0554 0.95149 43.22 0.433803C41.0858 0.145829 40.419 0.15835 38.0278 0.530646C34.8258 1.02917 32.7896 1.83074 30.7103 3.41063C29.8878 4.03564 29.1355 4.54694 29.0384 4.54694C28.9412 4.54694 28.1889 4.04126 27.3664 3.42316C25.1916 1.78909 23.4829 1.05191 20.8295 0.602703C18.1059 0.141485 16.4817 0.140208 13.2392 0.596826ZM43.6151 8.26453C44.3577 8.62277 45.2834 9.31958 45.6722 9.81299C46.6043 10.9958 47.3917 13.2158 47.4606 14.8544L47.516 16.1732H40.257H32.9979L33.0285 14.7019C33.0676 12.8414 34.309 10.2747 35.7154 9.1471C37.7382 7.52505 41.2656 7.13104 43.6151 8.26453ZM22.5202 25.2327C22.43 27.8056 22.3283 28.346 21.7257 29.4603C20.2884 32.1173 18.1036 33.4061 15.0212 33.4153C12.9631 33.4214 11.9259 32.9574 10.849 31.5487C10.0254 30.4717 10.0602 26.8484 10.9089 25.2948C11.6219 23.9896 13.311 22.8676 15.2361 22.4204C17.13 21.9807 21.8289 21.7201 22.2674 22.0305C22.5416 22.2247 22.5997 22.9611 22.5202 25.2327Z" fill="#0A0A0A"/>
</svg>
