<svg width="56" height="56" viewBox="0 0 56 56" fill="none" xmlns="http://www.w3.org/2000/svg">
<path d="M45.5 7H10.5C9.57174 7 8.6815 7.36875 8.02513 8.02513C7.36875 8.6815 7 9.57174 7 10.5V45.5C7 46.4283 7.36875 47.3185 8.02513 47.9749C8.6815 48.6312 9.57174 49 10.5 49H45.5C46.4283 49 47.3185 48.6312 47.9749 47.9749C48.6312 47.3185 49 46.4283 49 45.5V10.5C49 9.57174 48.6312 8.6815 47.9749 8.02513C47.3185 7.36875 46.4283 7 45.5 7Z" stroke="#9510AC" stroke-width="1.75" stroke-linecap="round" stroke-linejoin="round"/>
<path d="M17.5 24.5H38.5" stroke="#9510AC" stroke-width="1.75" stroke-linecap="round" stroke-linejoin="round"/>
<path d="M17.5 31.5H38.5" stroke="#9510AC" stroke-width="1.75" stroke-linecap="round" stroke-linejoin="round"/>
<path d="M38.5002 24.4999L30.3335 16.3333" stroke="#9510AC" stroke-width="1.75" stroke-linecap="round" stroke-linejoin="round"/>
<path d="M25.6667 39.6667L17.5 31.5" stroke="#9510AC" stroke-width="1.75" stroke-linecap="round" stroke-linejoin="round"/>
</svg>
