<svg width="19" height="18" viewBox="0 0 19 18" fill="none" xmlns="http://www.w3.org/2000/svg">
<path d="M11.2769 0C10.2659 0.00273726 9.26854 0.233914 8.35943 0.676259C7.45033 1.1186 6.65294 1.76068 6.02686 2.5545V0H0.0268555V18H6.02686V9.75C6.02686 8.95435 6.34293 8.19129 6.90554 7.62868C7.46814 7.06607 8.23121 6.75 9.02686 6.75C9.8225 6.75 10.5856 7.06607 11.1482 7.62868C11.7108 8.19129 12.0269 8.95435 12.0269 9.75V18H18.0269V6.75C18.0269 4.95979 17.3157 3.2429 16.0498 1.97703C14.784 0.711159 13.0671 0 11.2769 0Z" fill="#2D76F9"/>
</svg>
