<svg width="1024" height="1024" viewBox="0 0 1024 1024" fill="none" xmlns="http://www.w3.org/2000/svg">
<circle cx="144" cy="528" r="64" fill="url(#paint0_radial_121:757)"/>
<circle r="64" transform="matrix(-1 0 0 1 880 528)" fill="url(#paint1_radial_121:757)"/>
<circle cx="512" cy="560" r="384" fill="url(#paint2_radial_121:757)"/>
<circle cx="512" cy="560" r="384" fill="url(#paint3_radial_121:757)"/>
<g filter="url(#filter0_f_121:757)">
<path d="M488.002 880.001C686.825 880.001 848.003 718.824 848.003 520.001C848.003 482.506 842.27 446.349 831.634 412.359C852.408 457.259 864 507.275 864 559.999C864 754.404 706.404 911.999 512 911.999C397.332 911.999 295.471 857.17 231.203 772.299C296.519 838.773 387.446 880.001 488.002 880.001Z" fill="#C1092A" fill-opacity="0.6"/>
</g>
<g filter="url(#filter1_di_121:757)">
<path d="M512 464C392.624 464 288 544 272.603 647.478C268.721 667.031 284.069 683.671 304.556 687.277C310.024 688.239 315.587 687.277 320.972 685.927C349.237 678.838 445.464 656 512 656C578.536 656 674.763 678.838 703.029 685.927C708.413 687.277 713.976 688.239 719.444 687.277C739.931 683.671 755.279 667.031 751.397 647.478C736 544 631.376 464 512 464Z" fill="url(#paint4_linear_121:757)"/>
</g>
<g filter="url(#filter2_i_121:757)">
<path fill-rule="evenodd" clip-rule="evenodd" d="M622.428 668.409C610.664 633.781 565.688 608 512 608C458.312 608 413.336 633.781 401.572 668.409C437.616 661.769 478.559 656 512 656C545.442 656 586.384 661.769 622.428 668.409Z" fill="url(#paint5_linear_121:757)"/>
</g>
<g filter="url(#filter3_ddii_121:757)">
<path fill-rule="evenodd" clip-rule="evenodd" d="M288.478 300.119C290.621 291.547 299.308 286.334 307.881 288.478L435.881 320.478C442.869 322.225 447.829 328.426 447.996 335.628C448.163 342.83 443.498 349.255 436.598 351.325L276.598 399.325C268.134 401.864 259.214 397.061 256.675 388.597C254.136 380.134 258.939 371.214 267.403 368.675L371.642 337.403L300.12 319.522C291.547 317.379 286.335 308.692 288.478 300.119Z" fill="#894819"/>
</g>
<g filter="url(#filter4_dii_121:757)">
<path fill-rule="evenodd" clip-rule="evenodd" d="M735.522 300.119C733.379 291.547 724.692 286.334 716.119 288.478L588.119 320.478C581.131 322.225 576.171 328.426 576.004 335.628C575.837 342.83 580.502 349.255 587.402 351.325L747.402 399.325C755.866 401.864 764.786 397.061 767.325 388.597C769.864 380.134 765.061 371.214 756.597 368.675L652.358 337.403L723.88 319.522C732.453 317.379 737.665 308.692 735.522 300.119Z" fill="#894819"/>
</g>
<defs>
<filter id="filter0_f_121:757" x="159.203" y="340.359" width="776.797" height="643.64" filterUnits="userSpaceOnUse" color-interpolation-filters="sRGB">
<feFlood flood-opacity="0" result="BackgroundImageFix"/>
<feBlend mode="normal" in="SourceGraphic" in2="BackgroundImageFix" result="shape"/>
<feGaussianBlur stdDeviation="36" result="effect1_foregroundBlur_121:757"/>
</filter>
<filter id="filter1_di_121:757" x="264" y="456" width="512" height="255.666" filterUnits="userSpaceOnUse" color-interpolation-filters="sRGB">
<feFlood flood-opacity="0" result="BackgroundImageFix"/>
<feColorMatrix in="SourceAlpha" type="matrix" values="0 0 0 0 0 0 0 0 0 0 0 0 0 0 0 0 0 0 127 0" result="hardAlpha"/>
<feOffset dx="8" dy="8"/>
<feGaussianBlur stdDeviation="8"/>
<feColorMatrix type="matrix" values="0 0 0 0 1 0 0 0 0 0.87451 0 0 0 0 0.423529 0 0 0 1 0"/>
<feBlend mode="normal" in2="BackgroundImageFix" result="effect1_dropShadow_121:757"/>
<feBlend mode="normal" in="SourceGraphic" in2="effect1_dropShadow_121:757" result="shape"/>
<feColorMatrix in="SourceAlpha" type="matrix" values="0 0 0 0 0 0 0 0 0 0 0 0 0 0 0 0 0 0 127 0" result="hardAlpha"/>
<feOffset dx="16" dy="16"/>
<feGaussianBlur stdDeviation="16"/>
<feComposite in2="hardAlpha" operator="arithmetic" k2="-1" k3="1"/>
<feColorMatrix type="matrix" values="0 0 0 0 0 0 0 0 0 0 0 0 0 0 0 0 0 0 0.25 0"/>
<feBlend mode="normal" in2="shape" result="effect2_innerShadow_121:757"/>
</filter>
<filter id="filter2_i_121:757" x="401.572" y="608" width="220.855" height="68.4087" filterUnits="userSpaceOnUse" color-interpolation-filters="sRGB">
<feFlood flood-opacity="0" result="BackgroundImageFix"/>
<feBlend mode="normal" in="SourceGraphic" in2="BackgroundImageFix" result="shape"/>
<feColorMatrix in="SourceAlpha" type="matrix" values="0 0 0 0 0 0 0 0 0 0 0 0 0 0 0 0 0 0 127 0" result="hardAlpha"/>
<feOffset dy="8"/>
<feGaussianBlur stdDeviation="8"/>
<feComposite in2="hardAlpha" operator="arithmetic" k2="-1" k3="1"/>
<feColorMatrix type="matrix" values="0 0 0 0 0.51276 0 0 0 0 0.0415645 0 0 0 0 0.0415645 0 0 0 0.4 0"/>
<feBlend mode="normal" in2="shape" result="effect1_innerShadow_121:757"/>
</filter>
<filter id="filter3_ddii_121:757" x="249.996" y="281.996" width="210.004" height="130.008" filterUnits="userSpaceOnUse" color-interpolation-filters="sRGB">
<feFlood flood-opacity="0" result="BackgroundImageFix"/>
<feColorMatrix in="SourceAlpha" type="matrix" values="0 0 0 0 0 0 0 0 0 0 0 0 0 0 0 0 0 0 127 0" result="hardAlpha"/>
<feOffset dx="4" dy="4"/>
<feGaussianBlur stdDeviation="4"/>
<feColorMatrix type="matrix" values="0 0 0 0 0.0727691 0 0 0 0 0.00493009 0 0 0 0 0.216927 0 0 0 0.4 0"/>
<feBlend mode="normal" in2="BackgroundImageFix" result="effect1_dropShadow_121:757"/>
<feColorMatrix in="SourceAlpha" type="matrix" values="0 0 0 0 0 0 0 0 0 0 0 0 0 0 0 0 0 0 127 0" result="hardAlpha"/>
<feOffset dx="1" dy="1"/>
<feGaussianBlur stdDeviation="2"/>
<feComposite in2="hardAlpha" operator="out"/>
<feColorMatrix type="matrix" values="0 0 0 0 0.0119274 0 0 0 0 0.0199607 0 0 0 0 0.21276 0 0 0 0.4 0"/>
<feBlend mode="normal" in2="effect1_dropShadow_121:757" result="effect2_dropShadow_121:757"/>
<feBlend mode="normal" in="SourceGraphic" in2="effect2_dropShadow_121:757" result="shape"/>
<feColorMatrix in="SourceAlpha" type="matrix" values="0 0 0 0 0 0 0 0 0 0 0 0 0 0 0 0 0 0 127 0" result="hardAlpha"/>
<feOffset dx="6" dy="6"/>
<feGaussianBlur stdDeviation="16"/>
<feComposite in2="hardAlpha" operator="arithmetic" k2="-1" k3="1"/>
<feColorMatrix type="matrix" values="0 0 0 0 0.76276 0 0 0 0 0.388636 0 0 0 0 0.122215 0 0 0 1 0"/>
<feBlend mode="normal" in2="shape" result="effect3_innerShadow_121:757"/>
<feColorMatrix in="SourceAlpha" type="matrix" values="0 0 0 0 0 0 0 0 0 0 0 0 0 0 0 0 0 0 127 0" result="hardAlpha"/>
<feOffset dx="-6" dy="-6"/>
<feGaussianBlur stdDeviation="16"/>
<feComposite in2="hardAlpha" operator="arithmetic" k2="-1" k3="1"/>
<feColorMatrix type="matrix" values="0 0 0 0 0.354427 0 0 0 0 0.180009 0 0 0 0 0.0538352 0 0 0 1 0"/>
<feBlend mode="normal" in2="effect3_innerShadow_121:757" result="effect4_innerShadow_121:757"/>
</filter>
<filter id="filter4_dii_121:757" x="570" y="281.996" width="210.004" height="130.008" filterUnits="userSpaceOnUse" color-interpolation-filters="sRGB">
<feFlood flood-opacity="0" result="BackgroundImageFix"/>
<feColorMatrix in="SourceAlpha" type="matrix" values="0 0 0 0 0 0 0 0 0 0 0 0 0 0 0 0 0 0 127 0" result="hardAlpha"/>
<feOffset dx="4" dy="4"/>
<feGaussianBlur stdDeviation="4"/>
<feColorMatrix type="matrix" values="0 0 0 0 0.075147 0 0 0 0 0.00953788 0 0 0 0 0.15865 0 0 0 0.4 0"/>
<feBlend mode="normal" in2="BackgroundImageFix" result="effect1_dropShadow_121:757"/>
<feBlend mode="normal" in="SourceGraphic" in2="effect1_dropShadow_121:757" result="shape"/>
<feColorMatrix in="SourceAlpha" type="matrix" values="0 0 0 0 0 0 0 0 0 0 0 0 0 0 0 0 0 0 127 0" result="hardAlpha"/>
<feOffset dx="6" dy="6"/>
<feGaussianBlur stdDeviation="16"/>
<feComposite in2="hardAlpha" operator="arithmetic" k2="-1" k3="1"/>
<feColorMatrix type="matrix" values="0 0 0 0 0.76276 0 0 0 0 0.388636 0 0 0 0 0.122215 0 0 0 1 0"/>
<feBlend mode="normal" in2="shape" result="effect2_innerShadow_121:757"/>
<feColorMatrix in="SourceAlpha" type="matrix" values="0 0 0 0 0 0 0 0 0 0 0 0 0 0 0 0 0 0 127 0" result="hardAlpha"/>
<feOffset dx="-6" dy="-6"/>
<feGaussianBlur stdDeviation="16"/>
<feComposite in2="hardAlpha" operator="arithmetic" k2="-1" k3="1"/>
<feColorMatrix type="matrix" values="0 0 0 0 0.354427 0 0 0 0 0.180009 0 0 0 0 0.0538352 0 0 0 1 0"/>
<feBlend mode="normal" in2="effect2_innerShadow_121:757" result="effect3_innerShadow_121:757"/>
</filter>
<radialGradient id="paint0_radial_121:757" cx="0" cy="0" r="1" gradientUnits="userSpaceOnUse" gradientTransform="translate(96 504) rotate(61.3895) scale(100.24)">
<stop stop-color="#FFCE21"/>
<stop offset="1" stop-color="#F2911E"/>
</radialGradient>
<radialGradient id="paint1_radial_121:757" cx="0" cy="0" r="1" gradientUnits="userSpaceOnUse" gradientTransform="translate(16 40) rotate(61.3895) scale(100.24)">
<stop stop-color="#FFCE21"/>
<stop offset="1" stop-color="#F2911E"/>
</radialGradient>
<radialGradient id="paint2_radial_121:757" cx="0" cy="0" r="1" gradientUnits="userSpaceOnUse" gradientTransform="translate(376 272) rotate(78.559) scale(685.624)">
<stop stop-color="#FFEA9F"/>
<stop offset="0.122763" stop-color="#FFE380"/>
<stop offset="0.415997" stop-color="#FFD250"/>
<stop offset="0.643669" stop-color="#FFC122"/>
<stop offset="1" stop-color="#FFB422"/>
</radialGradient>
<radialGradient id="paint3_radial_121:757" cx="0" cy="0" r="1" gradientUnits="userSpaceOnUse" gradientTransform="translate(376 272) rotate(78.559) scale(685.624)">
<stop offset="0.557292" stop-color="#E35D12" stop-opacity="0"/>
<stop offset="1" stop-color="#FF24F6" stop-opacity="0.3"/>
</radialGradient>
<linearGradient id="paint4_linear_121:757" x1="512" y1="464" x2="512" y2="687.666" gradientUnits="userSpaceOnUse">
<stop stop-color="#60310F"/>
<stop offset="0.450755" stop-color="#7D3807"/>
</linearGradient>
<linearGradient id="paint5_linear_121:757" x1="512" y1="608" x2="512" y2="668.409" gradientUnits="userSpaceOnUse">
<stop stop-color="#F04343"/>
<stop offset="0.231992" stop-color="#EF4343"/>
<stop offset="0.377834" stop-color="#E13737"/>
<stop offset="1" stop-color="#C72121"/>
</linearGradient>
</defs>
</svg>
