<svg width="30" height="26" viewBox="0 0 30 26" fill="none" xmlns="http://www.w3.org/2000/svg">
<path d="M30 3.6938C28.8766 4.19176 27.6848 4.5184 26.4645 4.6628C27.7503 3.89398 28.7126 2.68376 29.172 1.2578C27.9639 1.97551 26.6418 2.48082 25.263 2.7518C24.4182 1.85243 23.3227 1.22763 22.1185 0.958409C20.9143 0.689188 19.657 0.787967 18.5096 1.24194C17.3622 1.69591 16.3777 2.48413 15.6837 3.50439C14.9897 4.52465 14.6183 5.72988 14.6175 6.9638C14.6167 7.43576 14.6695 7.90628 14.775 8.3663C12.3281 8.24345 9.93445 7.60748 7.74929 6.49965C5.56413 5.39183 3.63632 3.8369 2.091 1.9358C1.30389 3.29083 1.06275 4.89489 1.41666 6.42146C1.77058 7.94802 2.69294 9.28234 3.996 10.1528C3.01789 10.1228 2.06119 9.85895 1.206 9.3833V9.4613C1.20624 10.8825 1.69809 12.2599 2.59812 13.3598C3.49815 14.4596 4.75095 15.2143 6.144 15.4958C5.61553 15.6395 5.07016 15.7116 4.5225 15.7103C4.13348 15.7105 3.74529 15.6743 3.363 15.6023C3.75608 16.825 4.52139 17.8944 5.55197 18.6609C6.58255 19.4273 7.82688 19.8526 9.111 19.8773C6.53013 21.8973 3.25412 22.8126 0 22.4228C2.81408 24.2318 6.08962 25.1921 9.435 25.1888C11.7387 25.2043 14.0224 24.7621 16.1537 23.8876C18.285 23.0132 20.2213 21.724 21.8502 20.095C23.4791 18.4659 24.7681 16.5295 25.6424 14.3981C26.5167 12.2668 26.9587 9.98295 26.943 7.6793C26.943 7.4123 26.9365 7.1473 26.9235 6.8843C28.1303 6.0119 29.1721 4.93153 30 3.6938Z" fill="#2D76F9"/>
</svg>
