<svg width="56" height="56" viewBox="0 0 56 56" fill="none" xmlns="http://www.w3.org/2000/svg">
<path d="M24.5 30.3333H8.16667C7.46667 30.3333 7 30.8 7 31.5V47.8333C7 48.5333 7.46667 49 8.16667 49H24.5C25.2 49 25.6667 48.5333 25.6667 47.8333V31.5C25.6667 30.8 25.2 30.3333 24.5 30.3333ZM23.3333 46.6667H9.33333V32.6667H23.3333V46.6667ZM24.5 7H8.16667C7.46667 7 7 7.46667 7 8.16667V24.5C7 25.2 7.46667 25.6667 8.16667 25.6667H24.5C25.2 25.6667 25.6667 25.2 25.6667 24.5V8.16667C25.6667 7.46667 25.2 7 24.5 7ZM23.3333 23.3333H9.33333V9.33333H23.3333V23.3333ZM47.8333 7H31.5C30.8 7 30.3333 7.46667 30.3333 8.16667V24.5C30.3333 25.2 30.8 25.6667 31.5 25.6667H47.8333C48.5333 25.6667 49 25.2 49 24.5V8.16667C49 7.46667 48.5333 7 47.8333 7ZM46.6667 23.3333H32.6667V9.33333H46.6667V23.3333ZM47.8333 38.5H40.8333V31.5C40.8333 30.8 40.3667 30.3333 39.6667 30.3333C38.9667 30.3333 38.5 30.8 38.5 31.5V38.5H31.5C30.8 38.5 30.3333 38.9667 30.3333 39.6667C30.3333 40.3667 30.8 40.8333 31.5 40.8333H38.5V47.8333C38.5 48.5333 38.9667 49 39.6667 49C40.3667 49 40.8333 48.5333 40.8333 47.8333V40.8333H47.8333C48.5333 40.8333 49 40.3667 49 39.6667C49 38.9667 48.5333 38.5 47.8333 38.5Z" fill="#9510AC"/>
</svg>
