<svg width="20" height="20" viewBox="0 0 20 20" fill="none" xmlns="http://www.w3.org/2000/svg">
<path d="M7.03409 4.80137C7.34519 3.48302 8.55499 2.5 10 2.5C11.445 2.5 12.6548 3.48302 12.9659 4.80137L13.0959 4.82783C15.0836 5.2324 16.6665 6.69859 17.1846 8.61505C17.6051 10.1707 17.6051 11.8063 17.1846 13.362C16.6665 15.2785 15.0836 16.7447 13.0959 17.1492L12.7161 17.2265C10.9246 17.5912 9.07538 17.5912 7.28394 17.2265L6.90411 17.1492C4.9164 16.7447 3.3335 15.2785 2.81542 13.362C2.39486 11.8063 2.39486 10.1707 2.81542 8.61504C3.3335 6.69859 4.9164 5.2324 6.90411 4.82783L7.03409 4.80137Z" stroke="white" stroke-opacity="0.5" stroke-width="1.2" stroke-linejoin="round"/>
<path d="M7.91663 10.8333C7.91663 9.68274 8.84937 8.75 9.99996 8.75C11.1506 8.75 12.0833 9.68274 12.0833 10.8333C12.0833 11.9839 11.1506 12.9167 9.99996 12.9167C8.84937 12.9167 7.91663 11.9839 7.91663 10.8333Z" stroke="white" stroke-opacity="0.5" stroke-width="1.2"/>
</svg>
