<svg width="18" height="18" viewBox="0 0 18 18" fill="none" xmlns="http://www.w3.org/2000/svg">
<path d="M0.666626 9.86798L0.0679694 9.82785L0.066626 9.84789V9.86798H0.666626ZM0.686938 9.56495L1.28559 9.60508L0.686938 9.56495ZM17.313 9.56495L17.9116 9.52482V9.52482L17.313 9.56495ZM17.3333 9.86798H17.9333V9.84789L17.9319 9.82785L17.3333 9.86798ZM10.5284 1.65575L10.4074 2.24343V2.24343L10.5284 1.65575ZM7.47154 1.65575L7.59251 2.24343V2.24343L7.47154 1.65575ZM11.9913 13.8343L12.5807 13.7223L11.9913 13.8343ZM11.9913 11.5863L11.4018 11.4743L11.9913 11.5863ZM14.4672 9.03059L14.3003 8.45427L14.3003 8.45427L14.4672 9.03059ZM15.2419 8.92057V9.52057V8.92057ZM15.2419 16.5V17.1V16.5ZM14.4672 16.39L14.6342 15.8137L14.4672 16.39ZM17.3333 11.0606L16.7333 11.0605V11.0606H17.3333ZM14.2248 9.10081L14.3917 9.67713L14.3917 9.67713L14.2248 9.10081ZM14.2248 16.3198L14.0579 16.8961L14.0579 16.8961L14.2248 16.3198ZM17.3333 14.36H16.7333V14.36L17.3333 14.36ZM6.00863 13.8343L5.41918 13.7223L6.00863 13.8343ZM6.00863 11.5863L5.41918 11.6983L6.00863 11.5863ZM3.53266 9.03059L3.36575 9.6069H3.36575L3.53266 9.03059ZM2.75803 8.92057V9.52057V8.92057ZM2.75803 16.5V17.1V16.5ZM3.53266 16.39L3.69957 16.9663L3.69958 16.9663L3.53266 16.39ZM0.666631 11.0605H1.26663V11.0605L0.666631 11.0605ZM3.77513 9.10081L3.94204 8.52449L3.94204 8.52449L3.77513 9.10081ZM3.77513 16.3198L3.60822 15.7434L3.60821 15.7434L3.77513 16.3198ZM0.66663 14.36L1.26663 14.36V14.36H0.66663ZM1.26663 13.184L1.26663 9.86798H0.066626L0.0666261 13.184H1.26663ZM1.26528 9.9081L1.28559 9.60508L0.0882814 9.52482L0.0679694 9.82785L1.26528 9.9081ZM16.7143 9.60507L16.7346 9.9081L17.9319 9.82785L17.9116 9.52482L16.7143 9.60507ZM16.7333 9.86798V13.184H17.9333V9.86798H16.7333ZM17.9116 9.52482C17.6328 5.36458 14.6667 1.89503 10.6494 1.06807L10.4074 2.24343C13.88 2.95825 16.4704 5.96629 16.7143 9.60508L17.9116 9.52482ZM7.59251 2.24343C8.52154 2.05219 9.47838 2.05219 10.4074 2.24343L10.6494 1.06807C9.5607 0.843976 8.43922 0.843976 7.35057 1.06807L7.59251 2.24343ZM1.28559 9.60508C1.5295 5.96629 4.11995 2.95825 7.59251 2.24343L7.35057 1.06807C3.33325 1.89503 0.367145 5.36458 0.0882814 9.52482L1.28559 9.60508ZM14.6342 15.8137L14.3917 15.7434L14.0579 16.8961L14.3003 16.9663L14.6342 15.8137ZM14.3917 9.67713L14.6342 9.6069L14.3003 8.45427L14.0579 8.5245L14.3917 9.67713ZM12.5807 13.7223C12.4538 13.0539 12.4538 12.3667 12.5807 11.6983L11.4018 11.4743C11.2467 12.2907 11.2467 13.1299 11.4018 13.9463L12.5807 13.7223ZM14.6342 9.6069C14.832 9.54959 15.0365 9.52057 15.2419 9.52057V8.32057C14.9234 8.32057 14.6065 8.3656 14.3003 8.45427L14.6342 9.6069ZM15.2419 15.9C15.0365 15.9 14.832 15.871 14.6342 15.8137L14.3003 16.9663C14.6065 17.055 14.9234 17.1 15.2419 17.1V15.9ZM15.2419 9.52057C16.0527 9.52057 16.7333 10.197 16.7333 11.0605L17.9333 11.0606C17.9333 9.56037 16.7412 8.32057 15.2419 8.32057V9.52057ZM14.0579 8.52449C12.6921 8.92004 11.6696 10.0648 11.4018 11.4743L12.5807 11.6983C12.7664 10.7212 13.4713 9.9437 14.3917 9.67713L14.0579 8.52449ZM14.3917 15.7434C13.4713 15.4769 12.7664 14.6994 12.5807 13.7223L11.4018 13.9463C11.6696 15.3557 12.6921 16.5005 14.0579 16.8961L14.3917 15.7434ZM15.2419 17.1C16.7412 17.1 17.9333 15.8602 17.9333 14.36L16.7333 14.36C16.7333 15.2236 16.0527 15.9 15.2419 15.9V17.1ZM3.69958 16.9663L3.94204 16.8961L3.60821 15.7434L3.36575 15.8137L3.69958 16.9663ZM3.94204 8.52449L3.69957 8.45427L3.36575 9.6069L3.60822 9.67713L3.94204 8.52449ZM6.59809 13.9463C6.75319 13.1299 6.75319 12.2907 6.59809 11.4743L5.41918 11.6983C5.54616 12.3667 5.54616 13.0539 5.41918 13.7223L6.59809 13.9463ZM3.69957 8.45427C3.3934 8.3656 3.07653 8.32057 2.75803 8.32057V9.52057C2.96338 9.52057 3.16787 9.54959 3.36575 9.6069L3.69957 8.45427ZM2.75803 17.1C3.07653 17.1 3.39339 17.055 3.69957 16.9663L3.36575 15.8137C3.16787 15.871 2.96339 15.9 2.75803 15.9V17.1ZM2.75803 8.32057C1.2587 8.32057 0.0666227 9.56037 0.0666308 11.0606L1.26663 11.0605C1.26663 10.197 1.94726 9.52057 2.75803 9.52057V8.32057ZM3.60822 9.67712C4.52865 9.9437 5.23355 10.7212 5.41918 11.6983L6.59809 11.4743C6.33032 10.0648 5.3078 8.92004 3.94204 8.52449L3.60822 9.67712ZM3.94204 16.8961C5.3078 16.5005 6.33032 15.3557 6.59809 13.9463L5.41918 13.7223C5.23355 14.6994 4.52865 15.4769 3.60822 15.7434L3.94204 16.8961ZM2.75803 15.9C1.94726 15.9 1.26663 15.2236 1.26663 14.36L0.0666305 14.36C0.0666221 15.8602 1.25869 17.1 2.75803 17.1V15.9ZM16.7333 11.0606V14.36H17.9333V11.0606H16.7333ZM0.0666308 11.0605L0.0666305 14.36L1.26663 14.36L1.26663 11.0605H0.0666308Z" fill="white" fill-opacity="0.5"/>
</svg>
