<svg width="20" height="19" viewBox="0 0 20 19" fill="none" xmlns="http://www.w3.org/2000/svg">
<path d="M9.17027 9.59991H5.23187L7.19987 3.97791L9.16907 9.59991H9.17027ZM9.80147 11.3999L10.1975 12.5327L11.6111 11.1203L8.16347 1.28271C7.84427 0.371909 6.55667 0.371909 6.23747 1.28271L1.85027 13.8035C1.77134 14.0288 1.78516 14.2763 1.88868 14.4914C1.9922 14.7066 2.17694 14.8718 2.40227 14.9507C2.6276 15.0296 2.87505 15.0158 3.09019 14.9123C3.30533 14.8088 3.47054 14.624 3.54947 14.3987L4.59947 11.3999H9.80147ZM15.9695 8.45751L10.1747 14.2535C9.83687 14.5912 9.59713 15.0142 9.48107 15.4775L9.03227 17.2751C9.01834 17.3303 9.00871 17.3864 9.00347 17.4431C8.55643 17.4621 8.10875 17.4266 7.67027 17.3375C7.58267 17.3171 7.55027 17.2055 7.59107 17.1239C7.80707 16.7063 7.87067 15.8363 7.10627 15.5279C6.07427 15.1139 4.73267 15.6779 3.67187 16.1255C3.23267 16.3103 2.84147 16.4735 2.53907 16.5407C2.07467 16.6439 1.52147 16.4627 1.07987 16.2419C0.82547 16.1147 0.50147 16.3403 0.64787 16.5851C0.91067 17.0243 1.38467 17.4695 2.23907 17.5751C3.22307 17.6975 3.90827 17.3927 4.60907 17.0831C5.08907 16.8695 5.57507 16.6535 6.16907 16.5695C6.27227 16.5551 6.34307 16.6775 6.30347 16.7735C6.12107 17.2019 6.14387 17.8463 6.68267 18.2663C7.30427 18.7523 9.31187 18.8795 10.6583 18.4859L12.1235 18.1199C12.5879 18.0035 13.0115 17.7647 13.3487 17.4263L19.1447 11.6303C19.56 11.2083 19.7918 10.6392 19.7894 10.0471C19.787 9.45496 19.5506 8.88778 19.1318 8.46915C18.713 8.05053 18.1458 7.8144 17.5536 7.81222C16.9615 7.81004 16.3925 8.04198 15.9707 8.45751H15.9695Z" fill="#6054F0"/>
</svg>
