<svg width="24" height="24" viewBox="0 0 24 24" fill="none" xmlns="http://www.w3.org/2000/svg">
<path d="M14.3414 1.64721C14.2587 1.12274 13.6682 0.799553 13.2534 1.1402C10.171 3.67137 9.75356 8.37739 9.72822 10.4578C9.72222 10.9502 9.23743 11.2704 8.86363 10.9417C8.38111 10.5174 7.83719 9.80098 7.60944 8.63802C7.50722 8.11602 6.91682 7.78929 6.49049 8.11736C4.37047 9.7488 3 12.3361 3 15.1713C3 20.0472 7.02943 24 12 24C16.9706 24 21 20.0472 21 15.1713C21 8.4913 15.1465 6.75584 14.3414 1.64721Z" fill="#FF7527"/>
<path d="M12.3056 20.8837C10.0168 21.4028 7.69863 20.1357 7.12787 18.0532C6.55723 15.9709 7.95004 13.8617 10.2389 13.3425C13.8077 12.533 15.3605 11.0671 16.0127 10.1303C16.1542 9.92717 16.6218 9.96852 16.6671 10.2057C17.152 12.7441 17.9137 19.6115 12.3056 20.8837Z" fill="#FFE483"/>
</svg>
