<svg width="24" height="24" viewBox="0 0 24 24" fill="none" xmlns="http://www.w3.org/2000/svg">
<path d="M9.36041 14.7938H5.01605L4.2972 16.8602H2L5.92243 6H8.46966L12.3921 16.8602H10.0793L9.36041 14.7938ZM8.76658 13.0537L7.18823 8.51695L5.60988 13.0537H8.76658Z" fill="white"/>
<path d="M12.9831 12.5254C12.9831 11.6554 13.155 10.8837 13.4988 10.2105C13.853 9.53719 14.327 9.0193 14.9209 8.65678C15.5251 8.29426 16.1971 8.11299 16.9368 8.11299C17.5827 8.11299 18.1453 8.24247 18.6245 8.50141C19.1142 8.76036 19.5049 9.08663 19.7966 9.48023V8.25283H22V16.8602H19.7966V15.6017C19.5153 16.0057 19.1246 16.3423 18.6245 16.6116C18.1349 16.8705 17.5671 17 16.9212 17C16.1919 17 15.5251 16.8136 14.9209 16.4407C14.327 16.0678 13.853 15.5447 13.4988 14.8715C13.155 14.1879 12.9831 13.4058 12.9831 12.5254ZM19.7966 12.5565C19.7966 12.0282 19.6924 11.5777 19.484 11.2048C19.2757 10.8216 18.9944 10.5315 18.6402 10.3347C18.2859 10.1276 17.9057 10.024 17.4994 10.024C17.0931 10.024 16.718 10.1224 16.3742 10.3192C16.0304 10.516 15.7491 10.806 15.5303 11.1893C15.322 11.5621 15.2178 12.0075 15.2178 12.5254C15.2178 13.0433 15.322 13.4991 15.5303 13.8927C15.7491 14.2759 16.0304 14.5711 16.3742 14.7782C16.7284 14.9854 17.1035 15.089 17.4994 15.089C17.9057 15.089 18.2859 14.9906 18.6402 14.7938C18.9944 14.5866 19.2757 14.2966 19.484 13.9237C19.6924 13.5405 19.7966 13.0847 19.7966 12.5565Z" fill="white"/>
</svg>
