<svg width="24" height="24" viewBox="0 0 24 24" fill="none" xmlns="http://www.w3.org/2000/svg">
<circle cx="12" cy="12" r="12" fill="white"/>
<path d="M15.5211 7.01723C16.4038 7.01723 17.18 7.18949 17.8498 7.53402C18.5258 7.87281 19.0516 8.36664 19.4272 9.0155C19.8091 9.66437 20 10.4568 20 11.3928V12.6675H13.2113C13.2426 13.4083 13.4836 13.9911 13.9343 14.416C14.3912 14.8352 15.0235 15.0448 15.831 15.0448C16.4632 15.0448 17.0704 14.9816 17.6526 14.8553C18.2347 14.729 18.8169 14.5395 19.3991 14.2868V16.3196C18.8732 16.555 18.3255 16.7272 17.7559 16.8363C17.1925 16.9454 16.4977 17 15.6714 17C15.1017 17 14.5634 16.9368 14.0563 16.8105C13.5493 16.6784 13.0861 16.4832 12.6667 16.2248C12.2535 15.9607 11.8967 15.6276 11.5962 15.2257C11.2207 15.6334 10.8451 15.9693 10.4695 16.2334C10.0939 16.4976 9.65884 16.6928 9.16432 16.8191C8.67606 16.9397 8.06886 17 7.34272 17C6.74178 17 6.18779 16.8909 5.68075 16.6727C5.17371 16.4545 4.76682 16.1214 4.46009 15.6736C4.15336 15.2199 4 14.6457 4 13.9509C4 13.2676 4.16901 12.7077 4.50704 12.2713C4.84507 11.8292 5.34898 11.4961 6.01878 11.2722C6.69484 11.0482 7.53365 10.919 8.53521 10.8846L10.3286 10.8329V10.1094C10.3286 9.71318 10.1878 9.42033 9.9061 9.23084C9.63067 9.04134 9.25196 8.9466 8.76995 8.9466C8.26917 8.9466 7.78404 9.00689 7.31455 9.12748C6.84507 9.24806 6.37559 9.40884 5.9061 9.60982L4.97653 7.86994C5.52739 7.60006 6.14398 7.3876 6.82629 7.23256C7.50861 7.07752 8.21283 7 8.93897 7C9.64632 7 10.266 7.09475 10.7981 7.28424C11.3365 7.46799 11.7872 7.74935 12.1502 8.12834C12.5634 7.7551 13.0391 7.4766 13.5775 7.29285C14.1221 7.1091 14.77 7.01723 15.5211 7.01723ZM10.3286 12.3661L9.26761 12.4005C8.3975 12.4235 7.7903 12.5757 7.44601 12.857C7.10798 13.1384 6.93897 13.5088 6.93897 13.9681C6.93897 14.3701 7.0579 14.6572 7.29577 14.8295C7.53991 14.996 7.85915 15.0792 8.25352 15.0792C8.64789 15.0792 9.00156 15.0046 9.31455 14.8553C9.62754 14.706 9.8748 14.4878 10.0563 14.2007C10.2379 13.9136 10.3286 13.5662 10.3286 13.1585V12.3661ZM15.4648 8.8863C14.8263 8.8863 14.313 9.04996 13.9249 9.37726C13.543 9.70457 13.3239 10.2185 13.2676 10.919H17.3052C17.2989 10.5286 17.2238 10.1812 17.0798 9.87683C16.9421 9.57249 16.7387 9.33132 16.4695 9.15332C16.2003 8.97531 15.8654 8.8863 15.4648 8.8863Z" fill="#6054F0"/>
</svg>
