<svg width="624" height="108" viewBox="0 0 624 108" fill="none" xmlns="http://www.w3.org/2000/svg">
<path d="M262.52 5.46843V25.1835H235.753V106.49H211.145V25.1835H184.379V5.46843H262.52Z" fill="white"/>
<path d="M311.422 107.642C303.555 107.642 296.456 105.963 290.124 102.605C283.888 99.2472 278.947 94.4503 275.302 88.2144C271.752 81.9784 269.977 74.6872 269.977 66.3407C269.977 58.09 271.8 50.8468 275.446 44.6109C279.091 38.279 284.08 33.4342 290.412 30.0763C296.744 26.7185 303.843 25.0396 311.71 25.0396C319.577 25.0396 326.676 26.7185 333.008 30.0763C339.34 33.4342 344.329 38.279 347.974 44.6109C351.62 50.8468 353.443 58.09 353.443 66.3407C353.443 74.5913 351.572 81.8825 347.83 88.2144C344.185 94.4503 339.148 99.2472 332.72 102.605C326.388 105.963 319.289 107.642 311.422 107.642ZM311.422 86.3436C316.123 86.3436 320.104 84.6167 323.366 81.163C326.724 77.7092 328.403 72.7684 328.403 66.3407C328.403 59.9128 326.772 54.9721 323.51 51.5183C320.344 48.0646 316.411 46.3377 311.71 46.3377C306.913 46.3377 302.932 48.0646 299.766 51.5183C296.6 54.8761 295.017 59.8169 295.017 66.3407C295.017 72.7684 296.552 77.7092 299.622 81.163C302.788 84.6167 306.721 86.3436 311.422 86.3436Z" fill="white"/>
<path d="M415.569 106.49L391.105 72.8164V106.49H366.498V0H391.105V58.8575L415.426 26.1909H445.79L412.404 66.4846L446.078 106.49H415.569Z" fill="white"/>
<path d="M531.15 65.0455C531.15 67.348 531.006 69.7464 530.718 72.2408H475.026C475.41 77.2295 476.993 81.067 479.775 83.7533C482.653 86.3436 486.155 87.6387 490.28 87.6387C496.42 87.6387 500.69 85.0484 503.088 79.8678H529.279C527.936 85.1444 525.489 89.8933 521.94 94.1145C518.486 98.3358 514.121 101.646 508.844 104.044C503.568 106.442 497.667 107.642 491.144 107.642C483.277 107.642 476.273 105.963 470.133 102.605C463.993 99.2472 459.197 94.4503 455.743 88.2144C452.289 81.9784 450.562 74.6872 450.562 66.3407C450.562 57.9941 452.241 50.7029 455.599 44.4669C459.053 38.231 463.85 33.4342 469.99 30.0763C476.13 26.7185 483.181 25.0396 491.144 25.0396C498.915 25.0396 505.822 26.6706 511.866 29.9324C517.91 33.1943 522.611 37.8473 525.969 43.8913C529.423 49.9354 531.15 56.9868 531.15 65.0455ZM505.966 58.5697C505.966 54.3485 504.527 50.9907 501.649 48.4963C498.771 46.0019 495.173 44.7548 490.856 44.7548C486.731 44.7548 483.229 45.954 480.351 48.3524C477.569 50.7508 475.842 54.1566 475.17 58.5697H505.966Z" fill="white"/>
<path d="M593.06 25.3275C602.461 25.3275 609.944 28.3974 615.509 34.5374C621.169 40.5815 623.999 48.928 623.999 59.5771V106.49H599.535V62.8869C599.535 57.5144 598.144 53.3412 595.362 50.3671C592.58 47.393 588.838 45.906 584.137 45.906C579.436 45.906 575.695 47.393 572.913 50.3671C570.131 53.3412 568.739 57.5144 568.739 62.8869V106.49H544.132V26.1909H568.739V36.8399C571.234 33.2902 574.592 30.5081 578.813 28.4934C583.034 26.3828 587.783 25.3275 593.06 25.3275Z" fill="white"/>
<path fill-rule="evenodd" clip-rule="evenodd" d="M34.0597 2.34791C24.9857 3.62762 10.9841 8.24462 9.60287 10.4122C9.41273 10.7105 10.6011 13.7541 12.2439 17.1756C13.8859 20.5972 15.2488 23.6934 15.2726 24.0557C15.2957 24.4179 15.843 25.3723 16.4882 26.1758L17.6617 27.638L23.4584 25.3729C40.3759 18.7649 54.0338 20.0433 57.3451 28.5442C58.3114 31.0246 58.287 40.6413 57.3125 41.2255C56.8975 41.4745 51.3208 41.9388 44.919 42.2576C24.4831 43.2745 14.6153 46.2219 7.33878 53.4819C-3.73653 64.5311 -1.95799 90.5338 10.5278 100.125C17.3255 105.346 26.4267 107.412 36.9064 106.112C45.6185 105.031 49.5926 103.866 54.5954 100.928C58.6449 98.5493 66.3668 91.7503 67.6605 89.4247C68.711 87.5364 69.7813 88.0758 73.1747 92.2028C81.9689 102.9 97.3789 107.959 115.562 106.119C119.983 105.672 125.281 104.891 127.335 104.383C132.496 103.109 139.708 100.296 140.357 99.3034C140.653 98.851 140.901 94.2228 140.907 89.0183L140.917 79.5564L139.389 79.9121C138.549 80.1077 135.062 81.3235 131.641 82.6138C125.36 84.9829 114.787 86.962 108.495 86.9469C95.1827 86.9146 84.98 77.5054 84.3879 64.7149L84.2127 60.9389L115.111 60.6096L146.01 60.2803L146.212 52.3767C146.701 33.2047 142.828 21.4541 132.846 11.8197C126.604 5.79583 121.057 3.26209 111.19 1.9277C105.699 1.18543 103.984 1.2177 97.8318 2.17732C89.5945 3.46231 84.3559 5.52843 79.0067 9.60074C76.8907 11.2117 74.9553 12.5297 74.7054 12.5297C74.4555 12.5297 72.5201 11.2262 70.404 9.63301C64.809 5.42107 60.4132 3.52093 53.587 2.36306C46.5801 1.17423 42.4017 1.17094 34.0597 2.34791ZM112.206 22.1121C114.116 23.0355 116.498 24.8315 117.498 26.1034C119.896 29.1522 121.922 34.8743 122.099 39.0981L122.242 42.4973H103.567H84.8918L84.9705 38.7049C85.071 33.9094 88.2648 27.2935 91.883 24.387C97.0869 20.206 106.162 19.1904 112.206 22.1121ZM57.9366 65.849C57.7043 72.4808 57.4429 73.8737 55.8925 76.746C52.1948 83.5945 46.574 86.9166 38.6442 86.9403C33.3494 86.9561 30.6812 85.76 27.9105 82.129C25.7917 79.3529 25.8814 70.0135 28.0647 66.0091C29.8989 62.6448 34.2444 59.7527 39.197 58.6001C44.0695 57.4666 56.158 56.7948 57.286 57.5951C57.9916 58.0956 58.141 59.9938 57.9366 65.849Z" fill="white"/>
</svg>
