<svg width="40" height="40" viewBox="0 0 40 40" fill="none" xmlns="http://www.w3.org/2000/svg">
<path d="M32.9951 8.53075C30.6046 7.47665 28.0422 6.69753 25.3626 6.25451C25.3387 6.25003 25.314 6.25291 25.2919 6.26277C25.2698 6.27262 25.2513 6.28895 25.2391 6.3095C24.911 6.87322 24.5454 7.60803 24.2891 8.18855C21.4472 7.77338 18.5579 7.77338 15.716 8.18855C15.4306 7.54518 15.1087 6.91786 14.7519 6.3095C14.7398 6.2887 14.7215 6.272 14.6995 6.26163C14.6774 6.25125 14.6527 6.2477 14.6285 6.25145C11.9504 6.69448 9.38802 7.47359 6.9959 8.52922C6.97532 8.53766 6.95787 8.55205 6.9459 8.57047C2.08354 15.5596 0.750765 22.3761 1.40543 29.107C1.40726 29.1235 1.41249 29.1395 1.42082 29.1539C1.42914 29.1684 1.44039 29.181 1.45387 29.1911C4.2919 31.2113 7.45735 32.7503 10.8177 33.7435C10.8411 33.7506 10.8661 33.7506 10.8896 33.7435C10.913 33.7364 10.9337 33.7226 10.9489 33.7038C11.672 32.7583 12.3128 31.7552 12.8645 30.705C12.8721 30.6906 12.8765 30.6748 12.8774 30.6587C12.8783 30.6425 12.8756 30.6263 12.8695 30.6113C12.8634 30.5962 12.8541 30.5826 12.8422 30.5713C12.8303 30.5601 12.816 30.5515 12.8004 30.5461C11.7911 30.1745 10.8131 29.726 9.8755 29.2048C9.85865 29.1954 9.84446 29.1821 9.83419 29.166C9.82391 29.1499 9.81789 29.1315 9.81665 29.1126C9.81541 29.0937 9.819 29.0748 9.82709 29.0575C9.83518 29.0403 9.84752 29.0253 9.863 29.0138C10.0599 28.8718 10.2567 28.7236 10.4442 28.5754C10.4611 28.5621 10.4814 28.5536 10.503 28.5509C10.5245 28.5482 10.5463 28.5514 10.5661 28.5601C16.7019 31.2549 23.347 31.2549 29.4109 28.5601C29.4307 28.5509 29.4528 28.5473 29.4746 28.5497C29.4964 28.5521 29.5171 28.5605 29.5343 28.5739C29.7218 28.7236 29.9171 28.8718 30.1155 29.0138C30.1312 29.025 30.1437 29.0398 30.1521 29.0569C30.1604 29.074 30.1643 29.0929 30.1634 29.1118C30.1624 29.1307 30.1567 29.1491 30.1467 29.1653C30.1368 29.1816 30.1228 29.1951 30.1062 29.2048C29.1718 29.7303 28.2 30.1749 27.1797 30.5446C27.164 30.5501 27.1497 30.5589 27.1378 30.5703C27.1259 30.5817 27.1166 30.5954 27.1105 30.6106C27.1045 30.6258 27.1018 30.6421 27.1027 30.6583C27.1035 30.6746 27.108 30.6905 27.1156 30.705C27.6781 31.7545 28.3218 32.7536 29.0296 33.7023C29.0444 33.7218 29.0649 33.7363 29.0883 33.744C29.1118 33.7516 29.1372 33.752 29.1609 33.7451C32.527 32.7546 35.6976 31.2149 38.5387 29.1911C38.5526 29.1816 38.5642 29.1693 38.5729 29.1551C38.5815 29.1409 38.5869 29.125 38.5887 29.1086C39.37 21.3266 37.2794 14.5651 33.0436 8.57352C33.0332 8.55405 33.016 8.53887 32.9951 8.53075ZM13.7816 25.0083C11.9348 25.0083 10.4114 23.3752 10.4114 21.3724C10.4114 19.3681 11.9051 17.7365 13.7816 17.7365C15.6722 17.7365 17.1815 19.3818 17.1519 21.3724C17.1519 23.3767 15.6581 25.0083 13.7816 25.0083V25.0083ZM26.2422 25.0083C24.3938 25.0083 22.872 23.3752 22.872 21.3724C22.872 19.3681 24.3641 17.7365 26.2422 17.7365C28.1328 17.7365 29.6421 19.3818 29.6124 21.3724C29.6124 23.3767 28.1343 25.0083 26.2422 25.0083V25.0083Z" fill="#6E5E97"/>
</svg>
