<svg width="48" height="48" viewBox="0 0 48 48" fill="none" xmlns="http://www.w3.org/2000/svg">
<path d="M39.5942 10.2369C36.7255 8.97198 33.6506 8.03704 30.4351 7.50541C30.4064 7.50003 30.3768 7.5035 30.3502 7.51532C30.3237 7.52715 30.3016 7.54674 30.2869 7.5714C29.8932 8.24786 29.4545 9.12963 29.147 9.82626C25.7366 9.32806 22.2695 9.32806 18.8591 9.82626C18.5167 9.05422 18.1304 8.30143 17.7023 7.5714C17.6878 7.54644 17.6658 7.5264 17.6394 7.51395C17.6129 7.5015 17.5832 7.49725 17.5542 7.50174C14.3405 8.03337 11.2656 8.96831 8.39508 10.2351C8.37038 10.2452 8.34944 10.2625 8.33508 10.2846C2.50025 18.6715 0.900918 26.8513 1.68652 34.9284C1.68871 34.9482 1.69499 34.9674 1.70498 34.9847C1.71497 35.002 1.72847 35.0172 1.74464 35.0293C5.15028 37.4536 8.94882 39.3003 12.9812 40.4922C13.0093 40.5007 13.0394 40.5007 13.0675 40.4922C13.0956 40.4837 13.1204 40.4671 13.1387 40.4446C14.0064 39.3099 14.7753 38.1062 15.4374 36.846C15.4466 36.8287 15.4519 36.8098 15.4529 36.7904C15.4539 36.771 15.4507 36.7516 15.4434 36.7335C15.4361 36.7154 15.425 36.6991 15.4107 36.6856C15.3963 36.6721 15.3792 36.6618 15.3605 36.6553C14.1493 36.2094 12.9757 35.6712 11.8506 35.0458C11.8304 35.0345 11.8133 35.0185 11.801 34.9992C11.7887 34.9798 11.7815 34.9579 11.78 34.9351C11.7785 34.9124 11.7828 34.8897 11.7925 34.869C11.8022 34.8483 11.817 34.8303 11.8356 34.8166C12.0718 34.6461 12.3081 34.4683 12.5331 34.2905C12.5533 34.2745 12.5777 34.2643 12.6035 34.2611C12.6294 34.2578 12.6556 34.2617 12.6793 34.2722C20.0422 37.5059 28.0164 37.5059 35.293 34.2722C35.3168 34.261 35.3433 34.2567 35.3695 34.2596C35.3957 34.2625 35.4205 34.2726 35.4412 34.2886C35.6662 34.4683 35.9005 34.6461 36.1387 34.8166C36.1574 34.83 36.1725 34.8478 36.1825 34.8683C36.1925 34.8888 36.1972 34.9114 36.196 34.9341C36.1949 34.9568 36.1881 34.9789 36.1761 34.9984C36.1641 35.0179 36.1474 35.0342 36.1274 35.0458C35.0062 35.6764 33.84 36.2099 32.6156 36.6535C32.5968 36.6602 32.5797 36.6707 32.5654 36.6843C32.5511 36.698 32.5399 36.7145 32.5326 36.7327C32.5253 36.7509 32.5221 36.7705 32.5232 36.79C32.5242 36.8095 32.5296 36.8286 32.5388 36.846C33.2137 38.1054 33.9862 39.3043 34.8356 40.4427C34.8532 40.4661 34.8778 40.4836 34.906 40.4928C34.9342 40.5019 34.9646 40.5024 34.9931 40.4941C39.0323 39.3055 42.8371 37.4579 46.2465 35.0293C46.2631 35.0179 46.2771 35.0032 46.2874 34.9861C46.2978 34.969 46.3043 34.95 46.3065 34.9303C47.2439 25.5919 44.7353 17.4781 39.6523 10.2882C39.6398 10.2649 39.6192 10.2466 39.5942 10.2369ZM16.538 30.0099C14.3218 30.0099 12.4937 28.0502 12.4937 25.6469C12.4937 23.2417 14.2862 21.2838 16.538 21.2838C18.8067 21.2838 20.6178 23.2582 20.5822 25.6469C20.5822 28.0521 18.7898 30.0099 16.538 30.0099ZM31.4907 30.0099C29.2726 30.0099 27.4464 28.0502 27.4464 25.6469C27.4464 23.2417 29.237 21.2838 31.4907 21.2838C33.7593 21.2838 35.5705 23.2582 35.5349 25.6469C35.5349 28.0521 33.7612 30.0099 31.4907 30.0099Z" fill="#EBE8F4"/>
</svg>
