<svg width="59" height="58" viewBox="0 0 59 58" fill="none" xmlns="http://www.w3.org/2000/svg">
<path d="M28.7406 0.550547C28.9715 -0.183515 30.0285 -0.183516 30.2594 0.550546L36.791 21.3169C36.8685 21.5634 37.0648 21.7564 37.3156 21.8326L58.44 28.2535C59.1867 28.4805 59.1867 29.5195 58.44 29.7465L37.3156 36.1674C37.0648 36.2436 36.8685 36.4366 36.791 36.6831L30.2594 57.4494C30.0285 58.1835 28.9715 58.1835 28.7406 57.4494L22.209 36.6831C22.1315 36.4366 21.9352 36.2436 21.6844 36.1674L0.560039 29.7465C-0.186679 29.5195 -0.18668 28.4805 0.560039 28.2535L21.6844 21.8326C21.9352 21.7564 22.1315 21.5634 22.209 21.3169L28.7406 0.550547Z" fill="#8D00FF"/>
</svg>
