<svg width="24" height="24" viewBox="0 0 24 24" fill="none" xmlns="http://www.w3.org/2000/svg">
<path d="M18.7864 12.5907C18.8463 12.468 19.0275 12.0506 18.7834 11.5873L18.7834 11.5873C18.5393 11.124 18.0927 11.0373 17.9575 11.0174C17.8339 10.9992 17.6969 10.9997 17.6361 11C17.6301 11 17.6248 11 17.6204 11H13.8571L13.8571 2.64532C13.8571 2.63683 13.8572 2.62779 13.8572 2.61827C13.8573 2.51467 13.8576 2.35395 13.8403 2.21844C13.8307 2.14353 13.8061 1.98398 13.7199 1.81338C13.6177 1.61114 13.4165 1.37539 13.0828 1.27197C12.7491 1.16854 12.4498 1.2492 12.2511 1.35818C12.0835 1.45011 11.9731 1.56781 11.9228 1.62417C11.8319 1.72613 11.7412 1.85883 11.6827 1.94436C11.6774 1.95222 11.6723 1.95969 11.6675 1.96669L5.38997 11.1214C5.38746 11.125 5.38447 11.1294 5.38105 11.1343C5.34643 11.1843 5.26848 11.297 5.21363 11.4093C5.15366 11.532 4.97254 11.9494 5.21661 12.4127C5.46068 12.876 5.90733 12.9627 6.04247 12.9826C6.16606 13.0008 6.30307 13.0003 6.36393 13C6.36994 13 6.37521 13 6.37965 13H10.1429L10.1429 21.3547C10.1429 21.3632 10.1428 21.3722 10.1428 21.3817C10.1427 21.4853 10.1424 21.646 10.1597 21.7816C10.1693 21.8565 10.1939 22.016 10.2801 22.1866C10.3823 22.3889 10.5835 22.6246 10.9172 22.728C11.2509 22.8315 11.5502 22.7508 11.7489 22.6418C11.9165 22.5499 12.0269 22.4322 12.0772 22.3758C12.1681 22.2739 12.2588 22.1412 12.3173 22.0556C12.3226 22.0478 12.3277 22.0403 12.3325 22.0333L18.61 12.8786C18.6125 12.875 18.6155 12.8706 18.619 12.8657C18.6536 12.8156 18.7315 12.703 18.7864 12.5907Z" stroke="#FFE600" stroke-width="2"/>
</svg>