<svg width="118" height="118" viewBox="0 0 118 118" fill="none" xmlns="http://www.w3.org/2000/svg">
<path d="M108.166 72.286V79.0883C108.166 80.2171 108.117 81.3558 108.018 82.4846C106.639 98.0167 95.8497 108.166 80.2819 108.166H37.7168C29.8343 108.166 23.1835 105.608 18.4048 100.969C16.5327 99.249 14.9562 97.228 13.7246 94.9113C15.3504 92.9346 17.1732 90.7707 18.9467 88.6018C21.9519 85.0035 24.8585 81.4495 26.6814 79.1376C29.3909 75.7857 36.5344 66.9624 46.4367 71.1029C48.4566 71.9409 50.2301 73.1239 51.8559 74.1591C55.8464 76.8209 57.5214 77.6096 60.3295 76.0815C63.4332 74.4055 65.4531 71.1029 67.5715 67.6525C68.7046 65.8237 69.8377 64.0541 71.0693 62.4274C76.4392 55.4279 84.7158 53.5548 91.6129 57.6954C95.0614 59.7656 98.0174 62.3782 100.776 65.035C101.367 65.6265 101.959 66.1737 102.5 66.7159C103.239 67.4553 105.703 69.9199 108.166 72.286Z" fill="white"/>
<path opacity="0.4" d="M80.3315 9.83301H37.7171C21.0162 9.83301 9.83301 21.5154 9.83301 38.9107V79.0891C9.83301 85.1472 11.2124 90.525 13.725 94.9121C15.3507 92.9354 17.1735 90.7715 18.9471 88.5977C21.9522 85.0042 24.8589 81.4502 26.6817 79.1384C29.3913 75.7865 36.5347 66.9631 46.437 71.1037C48.4569 71.9417 50.2305 73.1247 51.8562 74.1599C55.8467 76.8217 57.5217 77.6104 60.3298 76.0774C63.4335 74.4063 65.4534 71.1037 67.5718 67.6483C68.7049 65.8245 69.838 64.0549 71.0697 62.4282C76.4396 55.4287 84.7161 53.5556 91.6132 57.6961C95.0618 59.7664 98.0177 62.3789 100.777 65.0358C101.368 65.6273 101.959 66.1745 102.501 66.7167C103.24 67.4511 105.703 69.9158 108.166 72.2867V38.9107C108.166 21.5154 96.9831 9.83301 80.3315 9.83301Z" fill="white"/>
<path d="M56.3169 43.2495C56.3169 50.1751 50.548 55.9423 43.6262 55.9423C36.7094 55.9423 30.9404 50.1751 30.9404 43.2495C30.9404 36.3288 36.7094 30.5566 43.6262 30.5566C50.548 30.5566 56.3169 36.3288 56.3169 43.2495Z" fill="white"/>
</svg>
